<?xml version="1.0" encoding="UTF-8" standalone="no"?>
<!-- Created with Inkscape (http://www.inkscape.org/) -->

<svg
   width="31.91613mm"
   height="27.413637mm"
   viewBox="0 0 31.91613 27.413637"
   version="1.1"
   id="svg1"
   inkscape:version="1.3.2 (091e20e, 2023-11-25, custom)"
   sodipodi:docname="logo_bia_oficial.svg"
   xmlns:inkscape="http://www.inkscape.org/namespaces/inkscape"
   xmlns:sodipodi="http://sodipodi.sourceforge.net/DTD/sodipodi-0.dtd"
   xmlns="http://www.w3.org/2000/svg"
   xmlns:svg="http://www.w3.org/2000/svg">
  <sodipodi:namedview
     id="namedview1"
     pagecolor="#505050"
     bordercolor="#ffffff"
     borderopacity="1"
     inkscape:showpageshadow="0"
     inkscape:pageopacity="0"
     inkscape:pagecheckerboard="1"
     inkscape:deskcolor="#d1d1d1"
     inkscape:document-units="mm"
     inkscape:zoom="0.69219276"
     inkscape:cx="202.97814"
     inkscape:cy="500.5831"
     inkscape:window-width="1920"
     inkscape:window-height="991"
     inkscape:window-x="-9"
     inkscape:window-y="-9"
     inkscape:window-maximized="1"
     inkscape:current-layer="layer1" />
  <defs
     id="defs1" />
  <g
     inkscape:label="Camada 1"
     inkscape:groupmode="layer"
     id="layer1"
     transform="translate(-41.422284,-172.06106)">
    <g
       id="g4"
       transform="translate(10.270794,11.622215)">
      <text
         xml:space="preserve"
         style="font-style:normal;font-variant:normal;font-weight:normal;font-stretch:normal;font-size:3.46244px;line-height:0px;font-family:adelia;-inkscape-font-specification:adelia;fill:#ffffff;fill-opacity:1;stroke:#ffffff;stroke-width:0;stroke-dasharray:none"
         x="41.180031"
         y="175.37798"
         id="text1-9-1-2-3-5-1-7-6-6-0-9-7-0-1-7-7-0-5-5-5-5-0"
         transform="scale(0.93383377,1.0708544)"
         inkscape:export-filename=".\text1-9-8.svg"
         inkscape:export-xdpi="96"
         inkscape:export-ydpi="96"><tspan
           sodipodi:role="line"
           id="tspan1-5-2-1-6-4-7-0-3-6-0-8-4-2-9-8-9-0-7-7-8-1-5"
           x="41.180031"
           y="175.37798"
           style="font-style:normal;font-variant:normal;font-weight:normal;font-stretch:normal;line-height:0px;font-family:Garet;-inkscape-font-specification:Garet;fill:#ffffff;fill-opacity:1;stroke:#ffffff;stroke-width:0;stroke-dasharray:none;stroke-opacity:1">Mãos e Pés</tspan></text>
      <text
         xml:space="preserve"
         style="font-style:normal;font-variant:normal;font-weight:normal;font-stretch:normal;font-size:15.4686px;line-height:0px;font-family:adelia;-inkscape-font-specification:adelia;fill:#ffffff;fill-opacity:1;stroke:#ffffff;stroke-width:0;stroke-dasharray:none"
         x="34.971298"
         y="161.09233"
         id="text1-9-1-2-3-0-2-7-5-7-2-4-7-5-74-9-0-8-6-3-4-8-2"
         transform="scale(0.93383377,1.0708544)"
         inkscape:export-filename=".\text1-9-1.svg"
         inkscape:export-xdpi="96"
         inkscape:export-ydpi="96"><tspan
           sodipodi:role="line"
           id="tspan1-5-2-1-6-6-4-0-0-0-2-4-5-9-9-4-8-3-9-1-9-0-9"
           x="34.971298"
           y="161.09233"
           style="font-style:normal;font-variant:normal;font-weight:normal;font-stretch:normal;line-height:0px;font-family:Bombslide;-inkscape-font-specification:Bombslide;fill:#ffffff;fill-opacity:1;stroke:#ffffff;stroke-width:0;stroke-dasharray:none;stroke-opacity:1">Bia</tspan></text>
      <g
         transform="matrix(0.00292326,2.4419639e-4,2.4419639e-4,-0.00292326,3.1850337,198.06437)"
         id="g376-3-4-8-0-3-0-8"
         style="fill:#ff6f00;fill-opacity:1">
        <path
           id="path378-5-7-0-1-8-3-5"
           style="fill:#ff6f00;fill-opacity:1;fill-rule:nonzero;stroke:none"
           d="m 14161.8,13448.9 c -12.9,14.4 -11.5,36.7 2.8,49.5 14.5,12.8 36.7,11.6 49.5,-2.8 l 949.5,-1065.3 c 12.9,-14.4 11.6,-36.7 -2.8,-49.5 -14.4,-12.9 -36.7,-11.6 -49.5,2.8 z m 1875.3,-3061.5 c -2.7,-41.7 26.9,-87.4 29.9,-131 3.4,-51.7 -5,-104.3 -25,-152.2 -9.7,-23.3 -22.1,-45.5 -31,-69.1 -24.5,-65.16 -49.9,-251.57 51.2,-272.37 80.5,-16.59 129.7,87.88 120.3,152.38 -12.5,85.99 -32.8,170.79 -60.4,253.19 -9.1,27.3 -47.1,115.6 -22,142 22,23 107.7,2.8 139.1,0.7 34.3,-2.9 60.8,34.6 54.4,82.2 -30.6,227 -134.6,431.1 -288.3,583.9 -15.9,15.8 -33.1,27.4 -47.7,33.9 l -870.5,1064.7 c 126.1,111.1 236,230.5 254.2,289.8 8.1,26.1 -20.6,46.8 -35.7,64.3 -115.7,134.5 -229,271.1 -347.9,402.6 -198.1,219.3 -399.6,435.3 -599.9,652.6 -70.2,76.2 -140.7,152.2 -211.5,228 -11.9,12.8 -24.2,26.5 -38.9,35.1 -11,6.5 -28.5,11.1 -39.1,6.9 -23.3,-9.2 -46.4,-21.9 -65.7,-37.7 -147.8,-121.1 -294.5,-243.3 -441.7,-365 -19.2,-15.9 -20.5,-33.6 -6.3,-53.7 47,-66.9 94,-133.9 140.9,-200.8 59.4,-84.7 118.1,-169.9 178.2,-254 51.2,-71.6 104,-142 156.2,-212.9 92.8,-126 184.2,-253 278.9,-377.6 60.5,-79.4 121.8,-158.2 183.3,-236.8 50.4,-64.4 109.1,-180 205.1,-186.7 56.5,-3.8 179.5,73.7 303.3,173 l 876.3,-1071.8 c 1.1,-1.4 2.5,-2.7 3.9,-3.8 4.5,-10.8 10.9,-22.5 18.6,-34 103.9,-155.3 149.1,-334.2 137.8,-505.8" />
      </g>
      <g
         transform="matrix(0.00272177,2.2736469e-4,2.2736469e-4,-0.00272177,3.1850337,198.06437)"
         id="g380-8-5-4-5-6-1-8">
        <path
           id="path382-4-3-3-0-9-7-9"
           style="fill:#ffffff;fill-opacity:1;fill-rule:nonzero;stroke:none"
           d="m 16283.2,13297.3 c 15.4,13.8 16.8,37.7 3,53.2 l -1019.8,1144.1 c -13.8,15.5 -37.7,16.9 -53.2,3.1 -15.4,-13.8 -16.8,-37.7 -3,-53.2 L 16230,13300.4 c 13.7,-15.5 37.7,-16.9 53.2,-3.1" />
      </g>
      <text
         xml:space="preserve"
         style="font-style:normal;font-variant:normal;font-weight:normal;font-stretch:normal;font-size:15.0126px;line-height:0px;font-family:adelia;-inkscape-font-specification:adelia;fill:#ffffff;fill-opacity:1;stroke:#ffffff;stroke-width:0;stroke-dasharray:none"
         x="41.476776"
         y="170.8167"
         id="text1-9-1-2-3-6-0-7-6-7-8-3-8-9-2-2-9-0-7-2-7-9"
         transform="scale(0.93383377,1.0708544)"
         inkscape:export-filename=".\text1-9-1.svg"
         inkscape:export-xdpi="96"
         inkscape:export-ydpi="96"><tspan
           sodipodi:role="line"
           id="tspan1-5-2-1-6-8-5-1-4-8-3-7-2-9-4-3-5-9-1-1-0-7"
           x="41.476776"
           y="170.8167"
           style="font-style:normal;font-variant:normal;font-weight:normal;font-stretch:normal;line-height:0px;font-family:Bombslide;-inkscape-font-specification:Bombslide;fill:#ffffff;fill-opacity:1;stroke:#ffffff;stroke-width:0;stroke-dasharray:none;stroke-opacity:1">Nails</tspan></text>
      <path
         id="path140-9-1-1-0-8-3-5-8"
         style="fill:#ff6f00;fill-opacity:1;fill-rule:nonzero;stroke:none;stroke-width:0.00186707"
         d="m 37.606955,179.68469 c 0.02619,-0.13994 -0.06032,-0.28059 -0.192193,-0.31284 l -0.703501,-0.17206 c -0.01111,-0.0354 -0.0635,-0.11213 -0.0689,-0.11726 -0.03527,-0.0336 -0.463286,-0.26059 -0.47461,-0.21471 l 0.08379,-0.33864 -0.04257,-0.0114 c -0.06186,-0.0167 -0.09911,-0.0824 -0.08303,-0.14674 0.01614,-0.0641 0.07961,-0.10313 0.140943,-0.0867 l 0.04236,0.0114 c 0.01561,-0.0632 0.03374,-0.12586 0.05276,-0.18822 l -0.04794,-0.013 c -0.06115,-0.0164 -0.09782,-0.0823 -0.08178,-0.14639 0.0164,-0.0643 0.07914,-0.10348 0.139912,-0.0872 l 0.05321,0.0143 c 0.0053,-0.023 0.01032,-0.0465 0.01455,-0.07 0.03003,-0.16476 0.04128,-0.21897 -0.1066,-0.26438 -0.191215,-0.059 -0.387562,-0.10385 -0.580523,-0.15554 h -0.0029 l -0.06493,-0.0175 h -0.0029 c -0.192987,-0.0517 -0.385472,-0.11102 -0.580549,-0.15555 -0.15076,-0.0347 -0.168143,0.018 -0.224499,0.17566 -0.0082,0.0222 -0.01535,0.0452 -0.02249,0.0678 l 0.05318,0.0143 c 0.06077,0.0164 0.09565,0.0816 0.0776,0.14544 -0.01826,0.0636 -0.08289,0.10229 -0.144013,0.0859 l -0.048,-0.013 c -0.01508,0.0634 -0.03051,0.12674 -0.04842,0.18939 l 0.04239,0.0114 c 0.0613,0.0164 0.09671,0.082 0.07871,0.14557 -0.01826,0.0637 -0.08342,0.10213 -0.145283,0.0856 l -0.04257,-0.0114 -0.09676,0.33515 c 0.01323,-0.0454 -0.471038,-0.0628 -0.518372,-0.0514 -0.0071,0.003 -0.09088,0.042 -0.118295,0.0671 l -0.695272,-0.20275 c -0.13036,-0.038 -0.275511,0.0406 -0.322871,0.17484 l -1.761384,4.95477 c -0.04792,0.13407 0.03381,0.2785 0.181636,0.32121 l 2.444089,0.70593 v 0.003 l 0.03844,0.01 0.03802,0.0111 v -0.003 l 2.469594,0.61071 c 0.149569,0.037 0.292365,-0.0473 0.317924,-0.18738 l 0.951971,-5.17162" />
      <path
         id="path142-8-2-9-8-8-3-8-5"
         style="fill:#ffffff;fill-opacity:1;fill-rule:nonzero;stroke:none;stroke-width:0.00186707"
         d="m 31.559189,183.02894 0.15568,-0.44463 0.310833,-0.88955 0.619098,-1.77962 0.308452,-0.89 0.07707,-0.2227 0.03834,-0.11131 0.01931,-0.0555 0.0095,-0.0278 c 0.0034,-0.01 0.0074,-0.0201 0.01191,-0.0295 0.03654,-0.0779 0.113797,-0.13401 0.192325,-0.14137 0.01931,-0.003 0.03916,0 0.05784,0.003 0.01958,0.004 0.03498,0.009 0.05231,0.014 l 0.01773,0.006 c -0.0071,-0.003 -0.01429,-0.004 -0.02064,-0.006 -0.01588,-0.003 -0.03238,-0.004 -0.04887,-0.003 -0.06641,0.006 -0.131922,0.0538 -0.162508,0.11959 -0.004,0.008 -0.0071,0.0164 -0.01032,0.0251 l -0.0098,0.0279 -0.01905,0.0557 -0.03831,0.11131 -0.07649,0.22264 -0.306678,0.89067 -0.615871,1.78049 -0.30898,0.88987 -0.154834,0.44503 -0.03868,0.11123 -0.0095,0.0274 c -0.0032,0.008 -0.0048,0.0172 -0.0061,0.0259 -0.0032,0.0175 -0.0037,0.0353 -0.0026,0.0528 0.0042,0.0346 0.01984,0.0674 0.0454,0.0902 0.0254,0.023 0.06014,0.0345 0.09633,0.0343 h 0.0053 c 0.08811,0.007 0.175022,0.0169 0.261805,0.0286 0.08665,0.0114 0.172773,0.0246 0.258657,0.0388 0.302022,0.0494 0.588619,0.13259 0.868495,0.25747 0.113956,0.0508 0.228521,0.10663 0.339566,0.16251 0.08747,0.0443 0.167111,0.1302 0.266859,0.14165 -0.193305,-0.0222 -0.36912,-0.11128 -0.560282,-0.16615 -0.341683,-0.0983 -0.690615,-0.0996 -1.031531,-0.19 -0.213042,-0.0562 -0.582692,-0.1461 -0.643599,-0.38412 -0.01879,-0.0742 0.02593,-0.15195 0.05054,-0.22246" />
      <path
         id="path144-79-6-1-7-7-9-8-0"
         style="fill:#ffffff;fill-opacity:1;fill-rule:nonzero;stroke:none;stroke-width:0.00186707"
         d="m 36.439322,183.396 c -0.01879,0.11015 -0.125333,0.18058 -0.236193,0.15571 -0.643996,-0.14375 -1.285584,-0.30231 -1.923786,-0.47488 -0.63881,-0.16962 -1.27373,-0.35308 -1.903491,-0.55065 -0.108453,-0.0339 -0.165762,-0.14819 -0.127397,-0.25312 0.28358,-0.78283 0.565917,-1.56597 0.847301,-2.34919 0.03768,-0.1053 0.146579,-0.16621 0.242094,-0.13597 0.430318,0.13619 0.863468,0.26461 1.299131,0.38521 2.11e-4,0 0,-0.003 0,-0.003 0.128508,0.0361 0.257333,0.0719 0.386185,0.10673 0.128958,0.0346 0.258472,0.0677 0.387853,0.10067 -2.11e-4,0 0,0.003 0,0.003 0.437595,0.1134 0.876935,0.21876 1.317705,0.31596 0.09763,0.0214 0.161686,0.12878 0.142213,0.23895 -0.145044,0.81976 -0.289057,1.63997 -0.431985,2.46046" />
      <path
         id="path146-2-3-6-6-8-6-6-8"
         style="fill:#ffffff;fill-opacity:1;fill-rule:nonzero;stroke:none;stroke-width:0.00186707"
         d="m 35.994134,177.97776 -0.763031,-0.20447 c -0.03426,-0.009 -0.05416,-0.046 -0.04419,-0.0818 v 0 c 0.0095,-0.0361 0.04622,-0.0578 0.0803,-0.0486 l 0.760704,0.20381 c 0.03408,0.009 0.05453,0.0461 0.0454,0.0823 v 0 c -0.0095,0.0359 -0.04493,0.058 -0.07919,0.0488" />
      <path
         id="path148-7-0-6-0-5-4-8-1"
         style="fill:#ffffff;fill-opacity:1;fill-rule:nonzero;stroke:none;stroke-width:0.00186707"
         d="m 35.809032,178.34836 -0.546285,-0.14637 c -0.05014,-0.0135 -0.08139,-0.0591 -0.06956,-0.10176 v 0 c 0.01138,-0.0427 0.06228,-0.0666 0.112077,-0.0533 l 0.543745,0.14568 c 0.04995,0.0135 0.0817,0.0594 0.07078,0.10229 v 0 c -0.01058,0.0429 -0.0608,0.0668 -0.110754,0.0534" />
    </g>
  </g>
</svg>
