<?xml version="1.0" encoding="UTF-8" standalone="no"?>
<!-- Created with Inkscape (http://www.inkscape.org/) -->

<svg
   width="31.916204mm"
   height="27.413654mm"
   viewBox="0 0 31.916204 27.413654"
   version="1.1"
   id="svg1"
   inkscape:version="1.3.2 (091e20e, 2023-11-25, custom)"
   sodipodi:docname="logo_bia_oficial.svg"
   xmlns:inkscape="http://www.inkscape.org/namespaces/inkscape"
   xmlns:sodipodi="http://sodipodi.sourceforge.net/DTD/sodipodi-0.dtd"
   xmlns="http://www.w3.org/2000/svg"
   xmlns:svg="http://www.w3.org/2000/svg">
  <sodipodi:namedview
     id="namedview1"
     pagecolor="#505050"
     bordercolor="#ffffff"
     borderopacity="1"
     inkscape:showpageshadow="0"
     inkscape:pageopacity="0"
     inkscape:pagecheckerboard="1"
     inkscape:deskcolor="#d1d1d1"
     inkscape:document-units="mm"
     inkscape:zoom="0.69219276"
     inkscape:cx="202.97814"
     inkscape:cy="500.5831"
     inkscape:window-width="1920"
     inkscape:window-height="991"
     inkscape:window-x="-9"
     inkscape:window-y="-9"
     inkscape:window-maximized="1"
     inkscape:current-layer="layer1" />
  <defs
     id="defs1" />
  <g
     inkscape:label="Camada 1"
     inkscape:groupmode="layer"
     id="layer1"
     transform="translate(-128.02947,-169.8984)">
    <g
       id="g5"
       transform="translate(37.028916,12.691949)">
      <text
         xml:space="preserve"
         style="font-style:normal;font-variant:normal;font-weight:normal;font-stretch:normal;font-size:3.46244px;line-height:0px;font-family:adelia;-inkscape-font-specification:adelia;fill:#000000;fill-opacity:1;stroke:#ffffff;stroke-width:0;stroke-dasharray:none"
         x="105.26971"
         y="172.35948"
         id="text1-9-1-2-3-5-1-7-6-6-0-9-7-0-1-7-7-0-1"
         transform="scale(0.93383377,1.0708544)"
         inkscape:export-filename=".\text1-9-8.svg"
         inkscape:export-xdpi="96"
         inkscape:export-ydpi="96"><tspan
           sodipodi:role="line"
           id="tspan1-5-2-1-6-4-7-0-3-6-0-8-4-2-9-8-9-0-3"
           x="105.26971"
           y="172.35948"
           style="font-style:normal;font-variant:normal;font-weight:normal;font-stretch:normal;line-height:0px;font-family:Garet;-inkscape-font-specification:Garet;fill:#000000;fill-opacity:1;stroke:#ffffff;stroke-width:0;stroke-dasharray:none;stroke-opacity:1">Mãos e Pés</tspan></text>
      <text
         xml:space="preserve"
         style="font-style:normal;font-variant:normal;font-weight:normal;font-stretch:normal;font-size:15.4686px;line-height:0px;font-family:adelia;-inkscape-font-specification:adelia;fill:#000000;fill-opacity:1;stroke:#ffffff;stroke-width:0;stroke-dasharray:none"
         x="99.060966"
         y="158.07381"
         id="text1-9-1-2-3-0-2-7-5-7-2-4-7-5-74-9-0-8-9"
         transform="scale(0.93383377,1.0708544)"
         inkscape:export-filename=".\text1-9-1.svg"
         inkscape:export-xdpi="96"
         inkscape:export-ydpi="96"><tspan
           sodipodi:role="line"
           id="tspan1-5-2-1-6-6-4-0-0-0-2-4-5-9-9-4-8-3-3"
           x="99.060966"
           y="158.07381"
           style="font-style:normal;font-variant:normal;font-weight:normal;font-stretch:normal;line-height:0px;font-family:Bombslide;-inkscape-font-specification:Bombslide;fill:#000000;fill-opacity:1;stroke:#ffffff;stroke-width:0;stroke-dasharray:none;stroke-opacity:1">Bia</tspan></text>
      <g
         transform="matrix(0.00292326,2.4419639e-4,2.4419639e-4,-0.00292326,63.03413,194.83195)"
         id="g376-3-4-85"
         style="fill:#ff6d00;fill-opacity:1">
        <path
           id="path378-5-7-7"
           style="fill:#ff6d00;fill-opacity:1;fill-rule:nonzero;stroke:none"
           d="m 14161.8,13448.9 c -12.9,14.4 -11.5,36.7 2.8,49.5 14.5,12.8 36.7,11.6 49.5,-2.8 l 949.5,-1065.3 c 12.9,-14.4 11.6,-36.7 -2.8,-49.5 -14.4,-12.9 -36.7,-11.6 -49.5,2.8 z m 1875.3,-3061.5 c -2.7,-41.7 26.9,-87.4 29.9,-131 3.4,-51.7 -5,-104.3 -25,-152.2 -9.7,-23.3 -22.1,-45.5 -31,-69.1 -24.5,-65.16 -49.9,-251.57 51.2,-272.37 80.5,-16.59 129.7,87.88 120.3,152.38 -12.5,85.99 -32.8,170.79 -60.4,253.19 -9.1,27.3 -47.1,115.6 -22,142 22,23 107.7,2.8 139.1,0.7 34.3,-2.9 60.8,34.6 54.4,82.2 -30.6,227 -134.6,431.1 -288.3,583.9 -15.9,15.8 -33.1,27.4 -47.7,33.9 l -870.5,1064.7 c 126.1,111.1 236,230.5 254.2,289.8 8.1,26.1 -20.6,46.8 -35.7,64.3 -115.7,134.5 -229,271.1 -347.9,402.6 -198.1,219.3 -399.6,435.3 -599.9,652.6 -70.2,76.2 -140.7,152.2 -211.5,228 -11.9,12.8 -24.2,26.5 -38.9,35.1 -11,6.5 -28.5,11.1 -39.1,6.9 -23.3,-9.2 -46.4,-21.9 -65.7,-37.7 -147.8,-121.1 -294.5,-243.3 -441.7,-365 -19.2,-15.9 -20.5,-33.6 -6.3,-53.7 47,-66.9 94,-133.9 140.9,-200.8 59.4,-84.7 118.1,-169.9 178.2,-254 51.2,-71.6 104,-142 156.2,-212.9 92.8,-126 184.2,-253 278.9,-377.6 60.5,-79.4 121.8,-158.2 183.3,-236.8 50.4,-64.4 109.1,-180 205.1,-186.7 56.5,-3.8 179.5,73.7 303.3,173 l 876.3,-1071.8 c 1.1,-1.4 2.5,-2.7 3.9,-3.8 4.5,-10.8 10.9,-22.5 18.6,-34 103.9,-155.3 149.1,-334.2 137.8,-505.8" />
      </g>
      <g
         transform="matrix(0.00272177,2.2736469e-4,2.2736469e-4,-0.00272177,63.03413,194.83195)"
         id="g380-8-5-7">
        <path
           id="path382-4-3-7"
           style="fill:#ffffff;fill-opacity:1;fill-rule:nonzero;stroke:none"
           d="m 16283.2,13297.3 c 15.4,13.8 16.8,37.7 3,53.2 l -1019.8,1144.1 c -13.8,15.5 -37.7,16.9 -53.2,3.1 -15.4,-13.8 -16.8,-37.7 -3,-53.2 L 16230,13300.4 c 13.7,-15.5 37.7,-16.9 53.2,-3.1" />
      </g>
      <text
         xml:space="preserve"
         style="font-style:normal;font-variant:normal;font-weight:normal;font-stretch:normal;font-size:15.0126px;line-height:0px;font-family:adelia;-inkscape-font-specification:adelia;fill:#000000;fill-opacity:1;stroke:#ffffff;stroke-width:0;stroke-dasharray:none"
         x="105.56647"
         y="167.79814"
         id="text1-9-1-2-3-6-0-7-6-7-8-3-8-9-2-2-9-3"
         transform="scale(0.93383377,1.0708544)"
         inkscape:export-filename=".\text1-9-1.svg"
         inkscape:export-xdpi="96"
         inkscape:export-ydpi="96"><tspan
           sodipodi:role="line"
           id="tspan1-5-2-1-6-8-5-1-4-8-3-7-2-9-4-3-5-7"
           x="105.56647"
           y="167.79814"
           style="font-style:normal;font-variant:normal;font-weight:normal;font-stretch:normal;line-height:0px;font-family:Bombslide;-inkscape-font-specification:Bombslide;fill:#000000;fill-opacity:1;stroke:#ffffff;stroke-width:0;stroke-dasharray:none;stroke-opacity:1">Nails</tspan></text>
      <path
         id="path140-9-1-1-2"
         style="fill:#ff6f00;fill-opacity:1;fill-rule:nonzero;stroke:none;stroke-width:0.00186707"
         d="m 97.456048,176.45227 c 0.0262,-0.13994 -0.0603,-0.28059 -0.19219,-0.31284 l -0.7035,-0.17206 c -0.0111,-0.0354 -0.0635,-0.11213 -0.0689,-0.11726 -0.0353,-0.0336 -0.46328,-0.26059 -0.47461,-0.21471 l 0.0838,-0.33864 -0.0426,-0.0114 c -0.0619,-0.0167 -0.0991,-0.0824 -0.083,-0.14674 0.0161,-0.064 0.0796,-0.10313 0.14094,-0.0867 l 0.0424,0.0114 c 0.0156,-0.0632 0.0337,-0.12586 0.0528,-0.18822 l -0.0479,-0.013 c -0.0611,-0.0164 -0.0978,-0.0823 -0.0818,-0.1464 0.0164,-0.0643 0.0791,-0.10348 0.13992,-0.0872 l 0.0532,0.0143 c 0.005,-0.023 0.0103,-0.0465 0.0146,-0.07 0.03,-0.16476 0.0413,-0.21897 -0.10661,-0.26437 -0.19121,-0.059 -0.38756,-0.10385 -0.58052,-0.15555 h -0.003 l -0.0649,-0.0175 h -0.003 c -0.19298,-0.0517 -0.38547,-0.11102 -0.58055,-0.15554 -0.15076,-0.0347 -0.16814,0.018 -0.2245,0.17565 -0.008,0.0222 -0.0153,0.0452 -0.0225,0.0678 l 0.0532,0.0143 c 0.0608,0.0164 0.0956,0.0816 0.0776,0.14544 -0.0183,0.0636 -0.0829,0.10229 -0.14401,0.0859 l -0.048,-0.013 c -0.0151,0.0634 -0.0305,0.12673 -0.0484,0.18938 l 0.0424,0.0114 c 0.0613,0.0164 0.0967,0.082 0.0787,0.14558 -0.0183,0.0637 -0.0834,0.10212 -0.14528,0.0856 l -0.0426,-0.0114 -0.0968,0.33515 c 0.0132,-0.0454 -0.47104,-0.0628 -0.51837,-0.0513 -0.007,0.003 -0.0909,0.042 -0.1183,0.0671 l -0.69527,-0.20275 c -0.13036,-0.038 -0.27551,0.0406 -0.32287,0.17483 l -1.76138,4.95477 c -0.0479,0.13407 0.0338,0.2785 0.18163,0.32121 l 2.44409,0.70593 v 0.003 l 0.0384,0.01 0.038,0.0111 v -0.003 l 2.4696,0.61071 c 0.14957,0.037 0.29236,-0.0473 0.31792,-0.18738 l 0.95197,-5.17162" />
      <path
         id="path142-8-2-9-83"
         style="fill:#ffffff;fill-opacity:1;fill-rule:nonzero;stroke:none;stroke-width:0.00186707"
         d="m 91.408288,179.79653 0.15568,-0.44464 0.31083,-0.88955 0.6191,-1.77962 0.30845,-0.89 0.0771,-0.2227 0.0383,-0.11131 0.0193,-0.0555 0.01,-0.0278 c 0.003,-0.01 0.007,-0.0201 0.0119,-0.0295 0.0365,-0.0779 0.11379,-0.13401 0.19232,-0.14136 0.0193,-0.003 0.0392,0 0.0578,0.003 0.0196,0.004 0.035,0.009 0.0523,0.014 l 0.0177,0.006 c -0.007,-0.003 -0.0143,-0.004 -0.0206,-0.006 -0.0159,-0.003 -0.0324,-0.004 -0.0489,-0.003 -0.0664,0.006 -0.13192,0.0538 -0.16251,0.11959 -0.004,0.008 -0.007,0.0164 -0.0103,0.0251 l -0.01,0.0279 -0.0191,0.0556 -0.0383,0.11131 -0.0765,0.22264 -0.30668,0.89067 -0.61587,1.78049 -0.30898,0.88987 -0.15483,0.44503 -0.0387,0.11123 -0.01,0.0274 c -0.003,0.008 -0.005,0.0172 -0.006,0.0259 -0.003,0.0175 -0.004,0.0353 -0.003,0.0528 0.004,0.0346 0.0198,0.0674 0.0454,0.0902 0.0254,0.023 0.0601,0.0345 0.0963,0.0343 h 0.005 c 0.0881,0.007 0.17502,0.0169 0.2618,0.0286 0.0867,0.0114 0.17278,0.0246 0.25866,0.0388 0.30202,0.0494 0.58862,0.13258 0.86849,0.25746 0.11396,0.0508 0.22853,0.10663 0.33957,0.16251 0.0875,0.0443 0.16711,0.1302 0.26686,0.14166 -0.1933,-0.0222 -0.36912,-0.11129 -0.56028,-0.16616 -0.34168,-0.0983 -0.69062,-0.0996 -1.03153,-0.19 -0.21305,-0.0562 -0.58269,-0.1461 -0.6436,-0.38412 -0.0188,-0.0742 0.0259,-0.15195 0.0505,-0.22246" />
      <path
         id="path144-79-6-1-3"
         style="fill:#ffffff;fill-opacity:1;fill-rule:nonzero;stroke:none;stroke-width:0.00186707"
         d="m 96.288418,180.16358 c -0.0188,0.11015 -0.12533,0.18058 -0.23619,0.15571 -0.644,-0.14375 -1.28559,-0.30231 -1.92379,-0.47487 -0.63881,-0.16963 -1.27373,-0.35309 -1.90349,-0.55066 -0.10845,-0.0339 -0.16576,-0.14819 -0.1274,-0.25312 0.28358,-0.78283 0.56592,-1.56597 0.8473,-2.34919 0.0377,-0.1053 0.14658,-0.16621 0.2421,-0.13596 0.43032,0.13618 0.86347,0.26461 1.29913,0.3852 2.1e-4,0 0,-0.003 0,-0.003 0.12851,0.0361 0.25733,0.0719 0.38618,0.10673 0.12896,0.0345 0.25848,0.0677 0.38786,0.10067 -2.1e-4,0 0,0.003 0,0.003 0.43759,0.1134 0.87693,0.21876 1.3177,0.31596 0.0976,0.0214 0.16169,0.12878 0.14221,0.23895 -0.14504,0.81976 -0.28905,1.63997 -0.43198,2.46047" />
      <path
         id="path146-2-3-6-67"
         style="fill:#ffffff;fill-opacity:1;fill-rule:nonzero;stroke:none;stroke-width:0.00186707"
         d="m 95.843228,174.74534 -0.76303,-0.20447 c -0.0343,-0.009 -0.0542,-0.046 -0.0442,-0.0818 v 0 c 0.01,-0.0361 0.0462,-0.0578 0.0803,-0.0486 l 0.7607,0.20381 c 0.0341,0.009 0.0545,0.0461 0.0454,0.0823 v 0 c -0.01,0.0359 -0.0449,0.0579 -0.0792,0.0488" />
      <path
         id="path148-7-0-6-3"
         style="fill:#ffffff;fill-opacity:1;fill-rule:nonzero;stroke:none;stroke-width:0.00186707"
         d="m 95.658128,175.11594 -0.54629,-0.14637 c -0.0501,-0.0135 -0.0814,-0.0591 -0.0695,-0.10176 v 0 c 0.0114,-0.0427 0.0623,-0.0666 0.11207,-0.0533 l 0.54375,0.14568 c 0.05,0.0135 0.0817,0.0594 0.0708,0.10229 v 0 c -0.0106,0.0429 -0.0608,0.0668 -0.11075,0.0534" />
    </g>
  </g>
</svg>
