<?xml version="1.0" encoding="UTF-8" standalone="no"?>
<!-- Created with Inkscape (http://www.inkscape.org/) -->

<svg
   width="210mm"
   height="297mm"
   viewBox="0 0 210 297"
   version="1.1"
   id="svg1"
   inkscape:version="1.3.2 (091e20e, 2023-11-25, custom)"
   sodipodi:docname="logo_bia_oficial.svg"
   xmlns:inkscape="http://www.inkscape.org/namespaces/inkscape"
   xmlns:sodipodi="http://sodipodi.sourceforge.net/DTD/sodipodi-0.dtd"
   xmlns="http://www.w3.org/2000/svg"
   xmlns:svg="http://www.w3.org/2000/svg">
  <sodipodi:namedview
     id="namedview1"
     pagecolor="#505050"
     bordercolor="#ffffff"
     borderopacity="1"
     inkscape:showpageshadow="0"
     inkscape:pageopacity="0"
     inkscape:pagecheckerboard="1"
     inkscape:deskcolor="#d1d1d1"
     inkscape:document-units="mm"
     inkscape:zoom="0.97890838"
     inkscape:cx="378.48282"
     inkscape:cy="568.49039"
     inkscape:window-width="1920"
     inkscape:window-height="991"
     inkscape:window-x="-9"
     inkscape:window-y="-9"
     inkscape:window-maximized="1"
     inkscape:current-layer="layer1" />
  <defs
     id="defs1" />
  <g
     inkscape:label="Camada 1"
     inkscape:groupmode="layer"
     id="layer1">
    <rect
       style="display:inline;fill:#ffffff;stroke:#ffffff;stroke-width:0"
       id="rect3-4-9-2-6-2"
       width="57.574837"
       height="61.158298"
       x="76.070831"
       y="7.8363376"
       inkscape:export-filename=".\logo_bia"
       inkscape:export-xdpi="96"
       inkscape:export-ydpi="96" />
    <text
       xml:space="preserve"
       style="font-style:normal;font-variant:normal;font-weight:normal;font-stretch:normal;font-size:3.46244px;line-height:0px;font-family:adelia;-inkscape-font-specification:adelia;fill:#000000;fill-opacity:1;stroke:#ffffff;stroke-width:0;stroke-dasharray:none"
       x="105.26971"
       y="48.004353"
       id="text1-9-1-2-3-5-1-7-6-6-0-9-7-0-1-7-7-0"
       transform="scale(0.93383377,1.0708544)"
       inkscape:export-filename=".\text1-9-8.svg"
       inkscape:export-xdpi="96"
       inkscape:export-ydpi="96"><tspan
         sodipodi:role="line"
         id="tspan1-5-2-1-6-4-7-0-3-6-0-8-4-2-9-8-9-0"
         x="105.26971"
         y="48.004353"
         style="font-style:normal;font-variant:normal;font-weight:normal;font-stretch:normal;line-height:0px;font-family:Garet;-inkscape-font-specification:Garet;fill:#000000;fill-opacity:1;stroke:#ffffff;stroke-width:0;stroke-dasharray:none;stroke-opacity:1">Mãos e Pés</tspan></text>
    <text
       xml:space="preserve"
       style="font-style:normal;font-variant:normal;font-weight:normal;font-stretch:normal;font-size:15.4686px;line-height:0px;font-family:adelia;-inkscape-font-specification:adelia;fill:#000000;fill-opacity:1;stroke:#ffffff;stroke-width:0;stroke-dasharray:none"
       x="99.060966"
       y="33.718678"
       id="text1-9-1-2-3-0-2-7-5-7-2-4-7-5-74-9-0-8"
       transform="scale(0.93383377,1.0708544)"
       inkscape:export-filename=".\text1-9-1.svg"
       inkscape:export-xdpi="96"
       inkscape:export-ydpi="96"><tspan
         sodipodi:role="line"
         id="tspan1-5-2-1-6-6-4-0-0-0-2-4-5-9-9-4-8-3"
         x="99.060966"
         y="33.718678"
         style="font-style:normal;font-variant:normal;font-weight:normal;font-stretch:normal;line-height:0px;font-family:Bombslide;-inkscape-font-specification:Bombslide;fill:#000000;fill-opacity:1;stroke:#ffffff;stroke-width:0;stroke-dasharray:none;stroke-opacity:1">Bia</tspan></text>
    <g
       transform="matrix(0.00292326,2.4419639e-4,2.4419639e-4,-0.00292326,63.03413,61.665713)"
       id="g376-3-4"
       style="fill:#ff6d00;fill-opacity:1">
      <path
         id="path378-5-7"
         style="fill:#ff6d00;fill-opacity:1;fill-rule:nonzero;stroke:none"
         d="m 14161.8,13448.9 c -12.9,14.4 -11.5,36.7 2.8,49.5 14.5,12.8 36.7,11.6 49.5,-2.8 l 949.5,-1065.3 c 12.9,-14.4 11.6,-36.7 -2.8,-49.5 -14.4,-12.9 -36.7,-11.6 -49.5,2.8 z m 1875.3,-3061.5 c -2.7,-41.7 26.9,-87.4 29.9,-131 3.4,-51.7 -5,-104.3 -25,-152.2 -9.7,-23.3 -22.1,-45.5 -31,-69.1 -24.5,-65.16 -49.9,-251.57 51.2,-272.37 80.5,-16.59 129.7,87.88 120.3,152.38 -12.5,85.99 -32.8,170.79 -60.4,253.19 -9.1,27.3 -47.1,115.6 -22,142 22,23 107.7,2.8 139.1,0.7 34.3,-2.9 60.8,34.6 54.4,82.2 -30.6,227 -134.6,431.1 -288.3,583.9 -15.9,15.8 -33.1,27.4 -47.7,33.9 l -870.5,1064.7 c 126.1,111.1 236,230.5 254.2,289.8 8.1,26.1 -20.6,46.8 -35.7,64.3 -115.7,134.5 -229,271.1 -347.9,402.6 -198.1,219.3 -399.6,435.3 -599.9,652.6 -70.2,76.2 -140.7,152.2 -211.5,228 -11.9,12.8 -24.2,26.5 -38.9,35.1 -11,6.5 -28.5,11.1 -39.1,6.9 -23.3,-9.2 -46.4,-21.9 -65.7,-37.7 -147.8,-121.1 -294.5,-243.3 -441.7,-365 -19.2,-15.9 -20.5,-33.6 -6.3,-53.7 47,-66.9 94,-133.9 140.9,-200.8 59.4,-84.7 118.1,-169.9 178.2,-254 51.2,-71.6 104,-142 156.2,-212.9 92.8,-126 184.2,-253 278.9,-377.6 60.5,-79.4 121.8,-158.2 183.3,-236.8 50.4,-64.4 109.1,-180 205.1,-186.7 56.5,-3.8 179.5,73.7 303.3,173 l 876.3,-1071.8 c 1.1,-1.4 2.5,-2.7 3.9,-3.8 4.5,-10.8 10.9,-22.5 18.6,-34 103.9,-155.3 149.1,-334.2 137.8,-505.8" />
    </g>
    <g
       transform="matrix(0.00272177,2.2736469e-4,2.2736469e-4,-0.00272177,63.03413,61.665713)"
       id="g380-8-5">
      <path
         id="path382-4-3"
         style="fill:#ffffff;fill-opacity:1;fill-rule:nonzero;stroke:none"
         d="m 16283.2,13297.3 c 15.4,13.8 16.8,37.7 3,53.2 l -1019.8,1144.1 c -13.8,15.5 -37.7,16.9 -53.2,3.1 -15.4,-13.8 -16.8,-37.7 -3,-53.2 L 16230,13300.4 c 13.7,-15.5 37.7,-16.9 53.2,-3.1" />
    </g>
    <text
       xml:space="preserve"
       style="font-style:normal;font-variant:normal;font-weight:normal;font-stretch:normal;font-size:15.0126px;line-height:0px;font-family:adelia;-inkscape-font-specification:adelia;fill:#000000;fill-opacity:1;stroke:#ffffff;stroke-width:0;stroke-dasharray:none"
       x="105.56647"
       y="43.443012"
       id="text1-9-1-2-3-6-0-7-6-7-8-3-8-9-2-2-9"
       transform="scale(0.93383377,1.0708544)"
       inkscape:export-filename=".\text1-9-1.svg"
       inkscape:export-xdpi="96"
       inkscape:export-ydpi="96"><tspan
         sodipodi:role="line"
         id="tspan1-5-2-1-6-8-5-1-4-8-3-7-2-9-4-3-5"
         x="105.56647"
         y="43.443012"
         style="font-style:normal;font-variant:normal;font-weight:normal;font-stretch:normal;line-height:0px;font-family:Bombslide;-inkscape-font-specification:Bombslide;fill:#000000;fill-opacity:1;stroke:#ffffff;stroke-width:0;stroke-dasharray:none;stroke-opacity:1">Nails</tspan></text>
    <path
       id="path140-9-1-1"
       style="fill:#ff6f00;fill-opacity:1;fill-rule:nonzero;stroke:none;stroke-width:0.00186707"
       d="m 97.456048,43.286033 c 0.0262,-0.13994 -0.0603,-0.28059 -0.19219,-0.31284 l -0.7035,-0.17206 c -0.0111,-0.0354 -0.0635,-0.11213 -0.0689,-0.11726 -0.0353,-0.0336 -0.46328,-0.26059 -0.47461,-0.21471 l 0.0838,-0.33864 -0.0426,-0.0114 c -0.0619,-0.0167 -0.0991,-0.0824 -0.083,-0.14674 0.0161,-0.064 0.0796,-0.10313 0.14094,-0.0867 l 0.0424,0.0114 c 0.0156,-0.0632 0.0337,-0.12586 0.0528,-0.18822 l -0.0479,-0.013 c -0.0611,-0.0164 -0.0978,-0.0823 -0.0818,-0.1464 0.0164,-0.0643 0.0791,-0.10348 0.13992,-0.0872 l 0.0532,0.0143 c 0.005,-0.023 0.0103,-0.0465 0.0146,-0.07 0.03,-0.16476 0.0413,-0.21897 -0.10661,-0.26437 -0.19121,-0.059 -0.38756,-0.10385 -0.58052,-0.15555 h -0.003 l -0.0649,-0.0175 h -0.003 c -0.19298,-0.0517 -0.38547,-0.11102 -0.58055,-0.15554 -0.15076,-0.0347 -0.16814,0.018 -0.2245,0.17565 -0.008,0.0222 -0.0153,0.0452 -0.0225,0.0678 l 0.0532,0.0143 c 0.0608,0.0164 0.0956,0.0816 0.0776,0.14544 -0.0183,0.0636 -0.0829,0.10229 -0.14401,0.0859 l -0.048,-0.013 c -0.0151,0.0634 -0.0305,0.12673 -0.0484,0.18938 l 0.0424,0.0114 c 0.0613,0.0164 0.0967,0.082 0.0787,0.14558 -0.0183,0.0637 -0.0834,0.10212 -0.14528,0.0856 l -0.0426,-0.0114 -0.0968,0.33515 c 0.0132,-0.0454 -0.47104,-0.0628 -0.51837,-0.0513 -0.007,0.003 -0.0909,0.042 -0.1183,0.0671 l -0.69527,-0.20275 c -0.13036,-0.038 -0.27551,0.0406 -0.32287,0.17483 l -1.76138,4.95477 c -0.0479,0.13407 0.0338,0.2785 0.18163,0.32121 l 2.44409,0.70593 v 0.003 l 0.0384,0.01 0.038,0.0111 v -0.003 l 2.4696,0.61071 c 0.14957,0.037 0.29236,-0.0473 0.31792,-0.18738 l 0.95197,-5.17162" />
    <path
       id="path142-8-2-9"
       style="fill:#ffffff;fill-opacity:1;fill-rule:nonzero;stroke:none;stroke-width:0.00186707"
       d="m 91.408288,46.630293 0.15568,-0.44464 0.31083,-0.88955 0.6191,-1.77962 0.30845,-0.89 0.0771,-0.2227 0.0383,-0.11131 0.0193,-0.0555 0.01,-0.0278 c 0.003,-0.01 0.007,-0.0201 0.0119,-0.0295 0.0365,-0.0779 0.11379,-0.13401 0.19232,-0.14136 0.0193,-0.003 0.0392,0 0.0578,0.003 0.0196,0.004 0.035,0.009 0.0523,0.014 l 0.0177,0.006 c -0.007,-0.003 -0.0143,-0.004 -0.0206,-0.006 -0.0159,-0.003 -0.0324,-0.004 -0.0489,-0.003 -0.0664,0.006 -0.13192,0.0538 -0.16251,0.11959 -0.004,0.008 -0.007,0.0164 -0.0103,0.0251 l -0.01,0.0279 -0.0191,0.0556 -0.0383,0.11131 -0.0765,0.22264 -0.30668,0.89067 -0.61587,1.78049 -0.30898,0.88987 -0.15483,0.44503 -0.0387,0.11123 -0.01,0.0274 c -0.003,0.008 -0.005,0.0172 -0.006,0.0259 -0.003,0.0175 -0.004,0.0353 -0.003,0.0528 0.004,0.0346 0.0198,0.0674 0.0454,0.0902 0.0254,0.023 0.0601,0.0345 0.0963,0.0343 h 0.005 c 0.0881,0.007 0.17502,0.0169 0.2618,0.0286 0.0867,0.0114 0.17278,0.0246 0.25866,0.0388 0.30202,0.0494 0.58862,0.13258 0.86849,0.25746 0.11396,0.0508 0.22853,0.10663 0.33957,0.16251 0.0875,0.0443 0.16711,0.1302 0.26686,0.14166 -0.1933,-0.0222 -0.36912,-0.11129 -0.56028,-0.16616 -0.34168,-0.0983 -0.69062,-0.0996 -1.03153,-0.19 -0.21305,-0.0562 -0.58269,-0.1461 -0.6436,-0.38412 -0.0188,-0.0742 0.0259,-0.15195 0.0505,-0.22246" />
    <path
       id="path144-79-6-1"
       style="fill:#ffffff;fill-opacity:1;fill-rule:nonzero;stroke:none;stroke-width:0.00186707"
       d="m 96.288418,46.997343 c -0.0188,0.11015 -0.12533,0.18058 -0.23619,0.15571 -0.644,-0.14375 -1.28559,-0.30231 -1.92379,-0.47487 -0.63881,-0.16963 -1.27373,-0.35309 -1.90349,-0.55066 -0.10845,-0.0339 -0.16576,-0.14819 -0.1274,-0.25312 0.28358,-0.78283 0.56592,-1.56597 0.8473,-2.34919 0.0377,-0.1053 0.14658,-0.16621 0.2421,-0.13596 0.43032,0.13618 0.86347,0.26461 1.29913,0.3852 2.1e-4,0 0,-0.003 0,-0.003 0.12851,0.0361 0.25733,0.0719 0.38618,0.10673 0.12896,0.0345 0.25848,0.0677 0.38786,0.10067 -2.1e-4,0 0,0.003 0,0.003 0.43759,0.1134 0.87693,0.21876 1.3177,0.31596 0.0976,0.0214 0.16169,0.12878 0.14221,0.23895 -0.14504,0.81976 -0.28905,1.63997 -0.43198,2.46047" />
    <path
       id="path146-2-3-6"
       style="fill:#ffffff;fill-opacity:1;fill-rule:nonzero;stroke:none;stroke-width:0.00186707"
       d="m 95.843228,41.579103 -0.76303,-0.20447 c -0.0343,-0.009 -0.0542,-0.046 -0.0442,-0.0818 v 0 c 0.01,-0.0361 0.0462,-0.0578 0.0803,-0.0486 l 0.7607,0.20381 c 0.0341,0.009 0.0545,0.0461 0.0454,0.0823 v 0 c -0.01,0.0359 -0.0449,0.0579 -0.0792,0.0488" />
    <path
       id="path148-7-0-6"
       style="fill:#ffffff;fill-opacity:1;fill-rule:nonzero;stroke:none;stroke-width:0.00186707"
       d="m 95.658128,41.949703 -0.54629,-0.14637 c -0.0501,-0.0135 -0.0814,-0.0591 -0.0695,-0.10176 v 0 c 0.0114,-0.0427 0.0623,-0.0666 0.11207,-0.0533 l 0.54375,0.14568 c 0.05,0.0135 0.0817,0.0594 0.0708,0.10229 v 0 c -0.0106,0.0429 -0.0608,0.0668 -0.11075,0.0534" />
    <g
       id="g5"
       transform="translate(37.028916,12.691949)"
       inkscape:export-filename="assets\logo\logo_bia_escuro.svg"
       inkscape:export-xdpi="96"
       inkscape:export-ydpi="96">
      <text
         xml:space="preserve"
         style="font-style:normal;font-variant:normal;font-weight:normal;font-stretch:normal;font-size:3.46244px;line-height:0px;font-family:adelia;-inkscape-font-specification:adelia;fill:#000000;fill-opacity:1;stroke:#ffffff;stroke-width:0;stroke-dasharray:none"
         x="105.26971"
         y="172.35948"
         id="text1-9-1-2-3-5-1-7-6-6-0-9-7-0-1-7-7-0-1"
         transform="scale(0.93383377,1.0708544)"
         inkscape:export-filename=".\text1-9-8.svg"
         inkscape:export-xdpi="96"
         inkscape:export-ydpi="96"><tspan
           sodipodi:role="line"
           id="tspan1-5-2-1-6-4-7-0-3-6-0-8-4-2-9-8-9-0-3"
           x="105.26971"
           y="172.35948"
           style="font-style:normal;font-variant:normal;font-weight:normal;font-stretch:normal;line-height:0px;font-family:Garet;-inkscape-font-specification:Garet;fill:#000000;fill-opacity:1;stroke:#ffffff;stroke-width:0;stroke-dasharray:none;stroke-opacity:1">Mãos e Pés</tspan></text>
      <text
         xml:space="preserve"
         style="font-style:normal;font-variant:normal;font-weight:normal;font-stretch:normal;font-size:15.4686px;line-height:0px;font-family:adelia;-inkscape-font-specification:adelia;fill:#000000;fill-opacity:1;stroke:#ffffff;stroke-width:0;stroke-dasharray:none"
         x="99.060966"
         y="158.07381"
         id="text1-9-1-2-3-0-2-7-5-7-2-4-7-5-74-9-0-8-9"
         transform="scale(0.93383377,1.0708544)"
         inkscape:export-filename=".\text1-9-1.svg"
         inkscape:export-xdpi="96"
         inkscape:export-ydpi="96"><tspan
           sodipodi:role="line"
           id="tspan1-5-2-1-6-6-4-0-0-0-2-4-5-9-9-4-8-3-3"
           x="99.060966"
           y="158.07381"
           style="font-style:normal;font-variant:normal;font-weight:normal;font-stretch:normal;line-height:0px;font-family:Bombslide;-inkscape-font-specification:Bombslide;fill:#000000;fill-opacity:1;stroke:#ffffff;stroke-width:0;stroke-dasharray:none;stroke-opacity:1">Bia</tspan></text>
      <g
         transform="matrix(0.00292326,2.4419639e-4,2.4419639e-4,-0.00292326,63.03413,194.83195)"
         id="g376-3-4-85"
         style="fill:#ff6d00;fill-opacity:1">
        <path
           id="path378-5-7-7"
           style="fill:#ff6d00;fill-opacity:1;fill-rule:nonzero;stroke:none"
           d="m 14161.8,13448.9 c -12.9,14.4 -11.5,36.7 2.8,49.5 14.5,12.8 36.7,11.6 49.5,-2.8 l 949.5,-1065.3 c 12.9,-14.4 11.6,-36.7 -2.8,-49.5 -14.4,-12.9 -36.7,-11.6 -49.5,2.8 z m 1875.3,-3061.5 c -2.7,-41.7 26.9,-87.4 29.9,-131 3.4,-51.7 -5,-104.3 -25,-152.2 -9.7,-23.3 -22.1,-45.5 -31,-69.1 -24.5,-65.16 -49.9,-251.57 51.2,-272.37 80.5,-16.59 129.7,87.88 120.3,152.38 -12.5,85.99 -32.8,170.79 -60.4,253.19 -9.1,27.3 -47.1,115.6 -22,142 22,23 107.7,2.8 139.1,0.7 34.3,-2.9 60.8,34.6 54.4,82.2 -30.6,227 -134.6,431.1 -288.3,583.9 -15.9,15.8 -33.1,27.4 -47.7,33.9 l -870.5,1064.7 c 126.1,111.1 236,230.5 254.2,289.8 8.1,26.1 -20.6,46.8 -35.7,64.3 -115.7,134.5 -229,271.1 -347.9,402.6 -198.1,219.3 -399.6,435.3 -599.9,652.6 -70.2,76.2 -140.7,152.2 -211.5,228 -11.9,12.8 -24.2,26.5 -38.9,35.1 -11,6.5 -28.5,11.1 -39.1,6.9 -23.3,-9.2 -46.4,-21.9 -65.7,-37.7 -147.8,-121.1 -294.5,-243.3 -441.7,-365 -19.2,-15.9 -20.5,-33.6 -6.3,-53.7 47,-66.9 94,-133.9 140.9,-200.8 59.4,-84.7 118.1,-169.9 178.2,-254 51.2,-71.6 104,-142 156.2,-212.9 92.8,-126 184.2,-253 278.9,-377.6 60.5,-79.4 121.8,-158.2 183.3,-236.8 50.4,-64.4 109.1,-180 205.1,-186.7 56.5,-3.8 179.5,73.7 303.3,173 l 876.3,-1071.8 c 1.1,-1.4 2.5,-2.7 3.9,-3.8 4.5,-10.8 10.9,-22.5 18.6,-34 103.9,-155.3 149.1,-334.2 137.8,-505.8" />
      </g>
      <g
         transform="matrix(0.00272177,2.2736469e-4,2.2736469e-4,-0.00272177,63.03413,194.83195)"
         id="g380-8-5-7">
        <path
           id="path382-4-3-7"
           style="fill:#ffffff;fill-opacity:1;fill-rule:nonzero;stroke:none"
           d="m 16283.2,13297.3 c 15.4,13.8 16.8,37.7 3,53.2 l -1019.8,1144.1 c -13.8,15.5 -37.7,16.9 -53.2,3.1 -15.4,-13.8 -16.8,-37.7 -3,-53.2 L 16230,13300.4 c 13.7,-15.5 37.7,-16.9 53.2,-3.1" />
      </g>
      <text
         xml:space="preserve"
         style="font-style:normal;font-variant:normal;font-weight:normal;font-stretch:normal;font-size:15.0126px;line-height:0px;font-family:adelia;-inkscape-font-specification:adelia;fill:#000000;fill-opacity:1;stroke:#ffffff;stroke-width:0;stroke-dasharray:none"
         x="105.56647"
         y="167.79814"
         id="text1-9-1-2-3-6-0-7-6-7-8-3-8-9-2-2-9-3"
         transform="scale(0.93383377,1.0708544)"
         inkscape:export-filename=".\text1-9-1.svg"
         inkscape:export-xdpi="96"
         inkscape:export-ydpi="96"><tspan
           sodipodi:role="line"
           id="tspan1-5-2-1-6-8-5-1-4-8-3-7-2-9-4-3-5-7"
           x="105.56647"
           y="167.79814"
           style="font-style:normal;font-variant:normal;font-weight:normal;font-stretch:normal;line-height:0px;font-family:Bombslide;-inkscape-font-specification:Bombslide;fill:#000000;fill-opacity:1;stroke:#ffffff;stroke-width:0;stroke-dasharray:none;stroke-opacity:1">Nails</tspan></text>
      <path
         id="path140-9-1-1-2"
         style="fill:#ff6f00;fill-opacity:1;fill-rule:nonzero;stroke:none;stroke-width:0.00186707"
         d="m 97.456048,176.45227 c 0.0262,-0.13994 -0.0603,-0.28059 -0.19219,-0.31284 l -0.7035,-0.17206 c -0.0111,-0.0354 -0.0635,-0.11213 -0.0689,-0.11726 -0.0353,-0.0336 -0.46328,-0.26059 -0.47461,-0.21471 l 0.0838,-0.33864 -0.0426,-0.0114 c -0.0619,-0.0167 -0.0991,-0.0824 -0.083,-0.14674 0.0161,-0.064 0.0796,-0.10313 0.14094,-0.0867 l 0.0424,0.0114 c 0.0156,-0.0632 0.0337,-0.12586 0.0528,-0.18822 l -0.0479,-0.013 c -0.0611,-0.0164 -0.0978,-0.0823 -0.0818,-0.1464 0.0164,-0.0643 0.0791,-0.10348 0.13992,-0.0872 l 0.0532,0.0143 c 0.005,-0.023 0.0103,-0.0465 0.0146,-0.07 0.03,-0.16476 0.0413,-0.21897 -0.10661,-0.26437 -0.19121,-0.059 -0.38756,-0.10385 -0.58052,-0.15555 h -0.003 l -0.0649,-0.0175 h -0.003 c -0.19298,-0.0517 -0.38547,-0.11102 -0.58055,-0.15554 -0.15076,-0.0347 -0.16814,0.018 -0.2245,0.17565 -0.008,0.0222 -0.0153,0.0452 -0.0225,0.0678 l 0.0532,0.0143 c 0.0608,0.0164 0.0956,0.0816 0.0776,0.14544 -0.0183,0.0636 -0.0829,0.10229 -0.14401,0.0859 l -0.048,-0.013 c -0.0151,0.0634 -0.0305,0.12673 -0.0484,0.18938 l 0.0424,0.0114 c 0.0613,0.0164 0.0967,0.082 0.0787,0.14558 -0.0183,0.0637 -0.0834,0.10212 -0.14528,0.0856 l -0.0426,-0.0114 -0.0968,0.33515 c 0.0132,-0.0454 -0.47104,-0.0628 -0.51837,-0.0513 -0.007,0.003 -0.0909,0.042 -0.1183,0.0671 l -0.69527,-0.20275 c -0.13036,-0.038 -0.27551,0.0406 -0.32287,0.17483 l -1.76138,4.95477 c -0.0479,0.13407 0.0338,0.2785 0.18163,0.32121 l 2.44409,0.70593 v 0.003 l 0.0384,0.01 0.038,0.0111 v -0.003 l 2.4696,0.61071 c 0.14957,0.037 0.29236,-0.0473 0.31792,-0.18738 l 0.95197,-5.17162" />
      <path
         id="path142-8-2-9-83"
         style="fill:#ffffff;fill-opacity:1;fill-rule:nonzero;stroke:none;stroke-width:0.00186707"
         d="m 91.408288,179.79653 0.15568,-0.44464 0.31083,-0.88955 0.6191,-1.77962 0.30845,-0.89 0.0771,-0.2227 0.0383,-0.11131 0.0193,-0.0555 0.01,-0.0278 c 0.003,-0.01 0.007,-0.0201 0.0119,-0.0295 0.0365,-0.0779 0.11379,-0.13401 0.19232,-0.14136 0.0193,-0.003 0.0392,0 0.0578,0.003 0.0196,0.004 0.035,0.009 0.0523,0.014 l 0.0177,0.006 c -0.007,-0.003 -0.0143,-0.004 -0.0206,-0.006 -0.0159,-0.003 -0.0324,-0.004 -0.0489,-0.003 -0.0664,0.006 -0.13192,0.0538 -0.16251,0.11959 -0.004,0.008 -0.007,0.0164 -0.0103,0.0251 l -0.01,0.0279 -0.0191,0.0556 -0.0383,0.11131 -0.0765,0.22264 -0.30668,0.89067 -0.61587,1.78049 -0.30898,0.88987 -0.15483,0.44503 -0.0387,0.11123 -0.01,0.0274 c -0.003,0.008 -0.005,0.0172 -0.006,0.0259 -0.003,0.0175 -0.004,0.0353 -0.003,0.0528 0.004,0.0346 0.0198,0.0674 0.0454,0.0902 0.0254,0.023 0.0601,0.0345 0.0963,0.0343 h 0.005 c 0.0881,0.007 0.17502,0.0169 0.2618,0.0286 0.0867,0.0114 0.17278,0.0246 0.25866,0.0388 0.30202,0.0494 0.58862,0.13258 0.86849,0.25746 0.11396,0.0508 0.22853,0.10663 0.33957,0.16251 0.0875,0.0443 0.16711,0.1302 0.26686,0.14166 -0.1933,-0.0222 -0.36912,-0.11129 -0.56028,-0.16616 -0.34168,-0.0983 -0.69062,-0.0996 -1.03153,-0.19 -0.21305,-0.0562 -0.58269,-0.1461 -0.6436,-0.38412 -0.0188,-0.0742 0.0259,-0.15195 0.0505,-0.22246" />
      <path
         id="path144-79-6-1-3"
         style="fill:#ffffff;fill-opacity:1;fill-rule:nonzero;stroke:none;stroke-width:0.00186707"
         d="m 96.288418,180.16358 c -0.0188,0.11015 -0.12533,0.18058 -0.23619,0.15571 -0.644,-0.14375 -1.28559,-0.30231 -1.92379,-0.47487 -0.63881,-0.16963 -1.27373,-0.35309 -1.90349,-0.55066 -0.10845,-0.0339 -0.16576,-0.14819 -0.1274,-0.25312 0.28358,-0.78283 0.56592,-1.56597 0.8473,-2.34919 0.0377,-0.1053 0.14658,-0.16621 0.2421,-0.13596 0.43032,0.13618 0.86347,0.26461 1.29913,0.3852 2.1e-4,0 0,-0.003 0,-0.003 0.12851,0.0361 0.25733,0.0719 0.38618,0.10673 0.12896,0.0345 0.25848,0.0677 0.38786,0.10067 -2.1e-4,0 0,0.003 0,0.003 0.43759,0.1134 0.87693,0.21876 1.3177,0.31596 0.0976,0.0214 0.16169,0.12878 0.14221,0.23895 -0.14504,0.81976 -0.28905,1.63997 -0.43198,2.46047" />
      <path
         id="path146-2-3-6-67"
         style="fill:#ffffff;fill-opacity:1;fill-rule:nonzero;stroke:none;stroke-width:0.00186707"
         d="m 95.843228,174.74534 -0.76303,-0.20447 c -0.0343,-0.009 -0.0542,-0.046 -0.0442,-0.0818 v 0 c 0.01,-0.0361 0.0462,-0.0578 0.0803,-0.0486 l 0.7607,0.20381 c 0.0341,0.009 0.0545,0.0461 0.0454,0.0823 v 0 c -0.01,0.0359 -0.0449,0.0579 -0.0792,0.0488" />
      <path
         id="path148-7-0-6-3"
         style="fill:#ffffff;fill-opacity:1;fill-rule:nonzero;stroke:none;stroke-width:0.00186707"
         d="m 95.658128,175.11594 -0.54629,-0.14637 c -0.0501,-0.0135 -0.0814,-0.0591 -0.0695,-0.10176 v 0 c 0.0114,-0.0427 0.0623,-0.0666 0.11207,-0.0533 l 0.54375,0.14568 c 0.05,0.0135 0.0817,0.0594 0.0708,0.10229 v 0 c -0.0106,0.0429 -0.0608,0.0668 -0.11075,0.0534" />
    </g>
    <rect
       style="display:inline;fill:#000000;stroke:#ffffff;stroke-width:0"
       id="rect3-4-9-2-6-2-6"
       width="57.574837"
       height="61.158298"
       x="136.17934"
       y="7.8363376"
       inkscape:export-filename=".\text1-9-9.svg"
       inkscape:export-xdpi="96"
       inkscape:export-ydpi="96" />
    <text
       xml:space="preserve"
       style="font-style:normal;font-variant:normal;font-weight:normal;font-stretch:normal;font-size:3.46244px;line-height:0px;font-family:adelia;-inkscape-font-specification:adelia;fill:#ffffff;fill-opacity:1;stroke:#ffffff;stroke-width:0;stroke-dasharray:none"
       x="169.63718"
       y="48.004353"
       id="text1-9-1-2-3-5-1-7-6-6-0-9-7-0-1-7-7-0-5"
       transform="scale(0.93383377,1.0708544)"
       inkscape:export-filename=".\text1-9-8.svg"
       inkscape:export-xdpi="96"
       inkscape:export-ydpi="96"><tspan
         sodipodi:role="line"
         id="tspan1-5-2-1-6-4-7-0-3-6-0-8-4-2-9-8-9-0-7"
         x="169.63718"
         y="48.004353"
         style="font-style:normal;font-variant:normal;font-weight:normal;font-stretch:normal;line-height:0px;font-family:Garet;-inkscape-font-specification:Garet;fill:#ffffff;fill-opacity:1;stroke:#ffffff;stroke-width:0;stroke-dasharray:none;stroke-opacity:1">Mãos e Pés</tspan></text>
    <text
       xml:space="preserve"
       style="font-style:normal;font-variant:normal;font-weight:normal;font-stretch:normal;font-size:15.4686px;line-height:0px;font-family:adelia;-inkscape-font-specification:adelia;fill:#ffffff;fill-opacity:1;stroke:#ffffff;stroke-width:0;stroke-dasharray:none"
       x="163.42845"
       y="33.718678"
       id="text1-9-1-2-3-0-2-7-5-7-2-4-7-5-74-9-0-8-6"
       transform="scale(0.93383377,1.0708544)"
       inkscape:export-filename=".\text1-9-1.svg"
       inkscape:export-xdpi="96"
       inkscape:export-ydpi="96"><tspan
         sodipodi:role="line"
         id="tspan1-5-2-1-6-6-4-0-0-0-2-4-5-9-9-4-8-3-9"
         x="163.42845"
         y="33.718678"
         style="font-style:normal;font-variant:normal;font-weight:normal;font-stretch:normal;line-height:0px;font-family:Bombslide;-inkscape-font-specification:Bombslide;fill:#ffffff;fill-opacity:1;stroke:#ffffff;stroke-width:0;stroke-dasharray:none;stroke-opacity:1">Bia</tspan></text>
    <g
       transform="matrix(0.00292326,2.4419639e-4,2.4419639e-4,-0.00292326,123.14263,61.665743)"
       id="g376-3-4-8"
       style="fill:#ff6f00;fill-opacity:1">
      <path
         id="path378-5-7-0"
         style="fill:#ff6f00;fill-opacity:1;fill-rule:nonzero;stroke:none"
         d="m 14161.8,13448.9 c -12.9,14.4 -11.5,36.7 2.8,49.5 14.5,12.8 36.7,11.6 49.5,-2.8 l 949.5,-1065.3 c 12.9,-14.4 11.6,-36.7 -2.8,-49.5 -14.4,-12.9 -36.7,-11.6 -49.5,2.8 z m 1875.3,-3061.5 c -2.7,-41.7 26.9,-87.4 29.9,-131 3.4,-51.7 -5,-104.3 -25,-152.2 -9.7,-23.3 -22.1,-45.5 -31,-69.1 -24.5,-65.16 -49.9,-251.57 51.2,-272.37 80.5,-16.59 129.7,87.88 120.3,152.38 -12.5,85.99 -32.8,170.79 -60.4,253.19 -9.1,27.3 -47.1,115.6 -22,142 22,23 107.7,2.8 139.1,0.7 34.3,-2.9 60.8,34.6 54.4,82.2 -30.6,227 -134.6,431.1 -288.3,583.9 -15.9,15.8 -33.1,27.4 -47.7,33.9 l -870.5,1064.7 c 126.1,111.1 236,230.5 254.2,289.8 8.1,26.1 -20.6,46.8 -35.7,64.3 -115.7,134.5 -229,271.1 -347.9,402.6 -198.1,219.3 -399.6,435.3 -599.9,652.6 -70.2,76.2 -140.7,152.2 -211.5,228 -11.9,12.8 -24.2,26.5 -38.9,35.1 -11,6.5 -28.5,11.1 -39.1,6.9 -23.3,-9.2 -46.4,-21.9 -65.7,-37.7 -147.8,-121.1 -294.5,-243.3 -441.7,-365 -19.2,-15.9 -20.5,-33.6 -6.3,-53.7 47,-66.9 94,-133.9 140.9,-200.8 59.4,-84.7 118.1,-169.9 178.2,-254 51.2,-71.6 104,-142 156.2,-212.9 92.8,-126 184.2,-253 278.9,-377.6 60.5,-79.4 121.8,-158.2 183.3,-236.8 50.4,-64.4 109.1,-180 205.1,-186.7 56.5,-3.8 179.5,73.7 303.3,173 l 876.3,-1071.8 c 1.1,-1.4 2.5,-2.7 3.9,-3.8 4.5,-10.8 10.9,-22.5 18.6,-34 103.9,-155.3 149.1,-334.2 137.8,-505.8" />
    </g>
    <g
       transform="matrix(0.00272177,2.2736469e-4,2.2736469e-4,-0.00272177,123.14263,61.665743)"
       id="g380-8-5-4">
      <path
         id="path382-4-3-3"
         style="fill:#ffffff;fill-opacity:1;fill-rule:nonzero;stroke:none"
         d="m 16283.2,13297.3 c 15.4,13.8 16.8,37.7 3,53.2 l -1019.8,1144.1 c -13.8,15.5 -37.7,16.9 -53.2,3.1 -15.4,-13.8 -16.8,-37.7 -3,-53.2 L 16230,13300.4 c 13.7,-15.5 37.7,-16.9 53.2,-3.1" />
    </g>
    <text
       xml:space="preserve"
       style="font-style:normal;font-variant:normal;font-weight:normal;font-stretch:normal;font-size:15.0126px;line-height:0px;font-family:adelia;-inkscape-font-specification:adelia;fill:#ffffff;fill-opacity:1;stroke:#ffffff;stroke-width:0;stroke-dasharray:none"
       x="169.93393"
       y="43.443012"
       id="text1-9-1-2-3-6-0-7-6-7-8-3-8-9-2-2-9-0"
       transform="scale(0.93383377,1.0708544)"
       inkscape:export-filename=".\text1-9-1.svg"
       inkscape:export-xdpi="96"
       inkscape:export-ydpi="96"><tspan
         sodipodi:role="line"
         id="tspan1-5-2-1-6-8-5-1-4-8-3-7-2-9-4-3-5-9"
         x="169.93393"
         y="43.443012"
         style="font-style:normal;font-variant:normal;font-weight:normal;font-stretch:normal;line-height:0px;font-family:Bombslide;-inkscape-font-specification:Bombslide;fill:#ffffff;fill-opacity:1;stroke:#ffffff;stroke-width:0;stroke-dasharray:none;stroke-opacity:1">Nails</tspan></text>
    <path
       id="path140-9-1-1-0"
       style="fill:#ff6f00;fill-opacity:1;fill-rule:nonzero;stroke:none;stroke-width:0.00186707"
       d="m 157.56455,43.286063 c 0.0262,-0.13994 -0.0603,-0.28059 -0.19219,-0.31285 l -0.70351,-0.17205 c -0.0111,-0.0354 -0.0635,-0.11213 -0.0689,-0.11727 -0.0353,-0.0336 -0.46329,-0.26059 -0.47461,-0.21471 l 0.0838,-0.33864 -0.0426,-0.0114 c -0.0619,-0.0167 -0.0991,-0.0824 -0.083,-0.14674 0.0161,-0.0641 0.0796,-0.10314 0.14095,-0.0867 l 0.0424,0.0114 c 0.0156,-0.0632 0.0337,-0.12586 0.0528,-0.18822 l -0.0479,-0.013 c -0.0611,-0.0164 -0.0978,-0.0823 -0.0818,-0.14639 0.0164,-0.0643 0.0791,-0.10348 0.13991,-0.0872 l 0.0532,0.0143 c 0.005,-0.023 0.0103,-0.0465 0.0146,-0.07 0.03,-0.16475 0.0413,-0.21897 -0.1066,-0.26437 -0.19121,-0.059 -0.38756,-0.10385 -0.58052,-0.15555 h -0.003 l -0.0649,-0.0175 h -0.003 c -0.19299,-0.0517 -0.38547,-0.11102 -0.58055,-0.15555 -0.15076,-0.0347 -0.16814,0.018 -0.2245,0.17566 -0.008,0.0222 -0.0153,0.0452 -0.0225,0.0678 l 0.0532,0.0143 c 0.0608,0.0164 0.0957,0.0816 0.0776,0.14544 -0.0182,0.0636 -0.0829,0.10228 -0.14401,0.0859 l -0.048,-0.013 c -0.0151,0.0634 -0.0305,0.12674 -0.0484,0.18939 l 0.0424,0.0114 c 0.0613,0.0164 0.0967,0.082 0.0787,0.14557 -0.0183,0.0637 -0.0834,0.10213 -0.14528,0.0856 l -0.0426,-0.0114 -0.0968,0.33515 c 0.0132,-0.0454 -0.47104,-0.0628 -0.51838,-0.0514 -0.007,0.003 -0.0909,0.042 -0.11829,0.0671 l -0.69527,-0.20275 c -0.13036,-0.038 -0.27551,0.0406 -0.32287,0.17484 l -1.76139,4.95477 c -0.0479,0.13407 0.0338,0.2785 0.18164,0.32121 l 2.44409,0.70593 v 0.003 l 0.0384,0.01 0.038,0.0111 v -0.003 l 2.4696,0.61071 c 0.14956,0.037 0.29236,-0.0473 0.31792,-0.18738 l 0.95197,-5.17162" />
    <path
       id="path142-8-2-9-8"
       style="fill:#ffffff;fill-opacity:1;fill-rule:nonzero;stroke:none;stroke-width:0.00186707"
       d="m 151.51678,46.630313 0.15568,-0.44463 0.31084,-0.88956 0.61909,-1.77961 0.30846,-0.89001 0.0771,-0.2227 0.0383,-0.11131 0.0193,-0.0555 0.01,-0.0278 c 0.003,-0.01 0.007,-0.0201 0.0119,-0.0295 0.0365,-0.0779 0.1138,-0.13401 0.19233,-0.14137 0.0193,-0.003 0.0392,0 0.0578,0.003 0.0196,0.004 0.035,0.009 0.0523,0.014 l 0.0177,0.006 c -0.007,-0.003 -0.0143,-0.004 -0.0206,-0.006 -0.0159,-0.003 -0.0324,-0.004 -0.0489,-0.003 -0.0664,0.006 -0.13193,0.0538 -0.16251,0.11959 -0.004,0.008 -0.007,0.0164 -0.0103,0.0251 l -0.01,0.0279 -0.019,0.0556 -0.0383,0.11131 -0.0765,0.22265 -0.30668,0.89067 -0.61587,1.78049 -0.30898,0.88987 -0.15484,0.44503 -0.0387,0.11123 -0.01,0.0274 c -0.003,0.008 -0.005,0.0172 -0.006,0.0259 -0.003,0.0175 -0.004,0.0354 -0.003,0.0528 0.004,0.0346 0.0198,0.0674 0.0454,0.0902 0.0254,0.023 0.0601,0.0345 0.0963,0.0343 h 0.005 c 0.0881,0.007 0.17503,0.0169 0.26181,0.0286 0.0866,0.0114 0.17277,0.0246 0.25866,0.0388 0.30202,0.0494 0.58861,0.13258 0.86849,0.25747 0.11396,0.0508 0.22852,0.10662 0.33957,0.1625 0.0875,0.0443 0.16711,0.13021 0.26686,0.14166 -0.19331,-0.0222 -0.36912,-0.11128 -0.56029,-0.16616 -0.34168,-0.0983 -0.69061,-0.0996 -1.03153,-0.18999 -0.21304,-0.0562 -0.58269,-0.14611 -0.6436,-0.38413 -0.0188,-0.0742 0.0259,-0.15195 0.0505,-0.22246" />
    <path
       id="path144-79-6-1-7"
       style="fill:#ffffff;fill-opacity:1;fill-rule:nonzero;stroke:none;stroke-width:0.00186707"
       d="m 156.39692,46.997373 c -0.0188,0.11014 -0.12534,0.18058 -0.2362,0.15571 -0.64399,-0.14375 -1.28558,-0.30232 -1.92378,-0.47488 -0.63881,-0.16962 -1.27373,-0.35308 -1.90349,-0.55065 -0.10846,-0.0339 -0.16577,-0.14819 -0.1274,-0.25313 0.28358,-0.78282 0.56592,-1.56596 0.8473,-2.34918 0.0377,-0.1053 0.14658,-0.16621 0.24209,-0.13597 0.43032,0.13618 0.86347,0.26461 1.29913,0.38521 2.2e-4,0 0,-0.003 0,-0.003 0.12851,0.0362 0.25734,0.0719 0.38619,0.10674 0.12896,0.0346 0.25847,0.0677 0.38785,0.10067 -2.1e-4,0 0,0.003 0,0.003 0.4376,0.1134 0.87694,0.21875 1.31771,0.31596 0.0976,0.0214 0.16168,0.12877 0.14221,0.23895 -0.14504,0.81975 -0.28906,1.63996 -0.43198,2.46046" />
    <path
       id="path146-2-3-6-6"
       style="fill:#ffffff;fill-opacity:1;fill-rule:nonzero;stroke:none;stroke-width:0.00186707"
       d="m 155.95173,41.579133 -0.76303,-0.20447 c -0.0343,-0.009 -0.0542,-0.046 -0.0442,-0.0818 v 0 c 0.01,-0.0361 0.0462,-0.0578 0.0803,-0.0486 l 0.76071,0.2038 c 0.0341,0.009 0.0545,0.0461 0.0454,0.0823 v 0 c -0.01,0.0359 -0.0449,0.058 -0.0792,0.0488" />
    <path
       id="path148-7-0-6-0"
       style="fill:#ffffff;fill-opacity:1;fill-rule:nonzero;stroke:none;stroke-width:0.00186707"
       d="m 155.76663,41.949733 -0.54629,-0.14637 c -0.0501,-0.0135 -0.0814,-0.0591 -0.0696,-0.10176 v 0 c 0.0114,-0.0427 0.0623,-0.0666 0.11208,-0.0533 l 0.54374,0.14568 c 0.05,0.0135 0.0817,0.0594 0.0708,0.10229 v 0 c -0.0106,0.0429 -0.0608,0.0668 -0.11075,0.0534" />
    <rect
       style="display:inline;fill:#803300;stroke:#ffffff;stroke-width:0"
       id="rect3-4-9-2-6-2-6-3-2-9"
       width="57.574837"
       height="61.158298"
       x="16.221712"
       y="7.775516"
       inkscape:export-filename=".\text1-9-9.svg"
       inkscape:export-xdpi="96"
       inkscape:export-ydpi="96" />
    <text
       xml:space="preserve"
       style="font-style:normal;font-variant:normal;font-weight:normal;font-stretch:normal;font-size:3.46244px;line-height:0px;font-family:adelia;-inkscape-font-specification:adelia;fill:#ffffff;fill-opacity:1;stroke:#ffffff;stroke-width:0;stroke-dasharray:none"
       x="41.180031"
       y="47.947529"
       id="text1-9-1-2-3-5-1-7-6-6-0-9-7-0-1-7-7-0-5-5-5-5"
       transform="scale(0.93383377,1.0708544)"
       inkscape:export-filename=".\text1-9-8.svg"
       inkscape:export-xdpi="96"
       inkscape:export-ydpi="96"><tspan
         sodipodi:role="line"
         id="tspan1-5-2-1-6-4-7-0-3-6-0-8-4-2-9-8-9-0-7-7-8-1"
         x="41.180031"
         y="47.947529"
         style="font-style:normal;font-variant:normal;font-weight:normal;font-stretch:normal;line-height:0px;font-family:Garet;-inkscape-font-specification:Garet;fill:#ffffff;fill-opacity:1;stroke:#ffffff;stroke-width:0;stroke-dasharray:none;stroke-opacity:1">Mãos e Pés</tspan></text>
    <text
       xml:space="preserve"
       style="font-style:normal;font-variant:normal;font-weight:normal;font-stretch:normal;font-size:15.4686px;line-height:0px;font-family:adelia;-inkscape-font-specification:adelia;fill:#ffffff;fill-opacity:1;stroke:#ffffff;stroke-width:0;stroke-dasharray:none"
       x="34.971298"
       y="33.661884"
       id="text1-9-1-2-3-0-2-7-5-7-2-4-7-5-74-9-0-8-6-3-4-8"
       transform="scale(0.93383377,1.0708544)"
       inkscape:export-filename=".\text1-9-1.svg"
       inkscape:export-xdpi="96"
       inkscape:export-ydpi="96"><tspan
         sodipodi:role="line"
         id="tspan1-5-2-1-6-6-4-0-0-0-2-4-5-9-9-4-8-3-9-1-9-0"
         x="34.971298"
         y="33.661884"
         style="font-style:normal;font-variant:normal;font-weight:normal;font-stretch:normal;line-height:0px;font-family:Bombslide;-inkscape-font-specification:Bombslide;fill:#ffffff;fill-opacity:1;stroke:#ffffff;stroke-width:0;stroke-dasharray:none;stroke-opacity:1">Bia</tspan></text>
    <g
       transform="matrix(0.00292326,2.4419639e-4,2.4419639e-4,-0.00292326,3.1850337,61.604913)"
       id="g376-3-4-8-0-3-0"
       style="fill:#ff6f00;fill-opacity:1">
      <path
         id="path378-5-7-0-1-8-3"
         style="fill:#ff6f00;fill-opacity:1;fill-rule:nonzero;stroke:none"
         d="m 14161.8,13448.9 c -12.9,14.4 -11.5,36.7 2.8,49.5 14.5,12.8 36.7,11.6 49.5,-2.8 l 949.5,-1065.3 c 12.9,-14.4 11.6,-36.7 -2.8,-49.5 -14.4,-12.9 -36.7,-11.6 -49.5,2.8 z m 1875.3,-3061.5 c -2.7,-41.7 26.9,-87.4 29.9,-131 3.4,-51.7 -5,-104.3 -25,-152.2 -9.7,-23.3 -22.1,-45.5 -31,-69.1 -24.5,-65.16 -49.9,-251.57 51.2,-272.37 80.5,-16.59 129.7,87.88 120.3,152.38 -12.5,85.99 -32.8,170.79 -60.4,253.19 -9.1,27.3 -47.1,115.6 -22,142 22,23 107.7,2.8 139.1,0.7 34.3,-2.9 60.8,34.6 54.4,82.2 -30.6,227 -134.6,431.1 -288.3,583.9 -15.9,15.8 -33.1,27.4 -47.7,33.9 l -870.5,1064.7 c 126.1,111.1 236,230.5 254.2,289.8 8.1,26.1 -20.6,46.8 -35.7,64.3 -115.7,134.5 -229,271.1 -347.9,402.6 -198.1,219.3 -399.6,435.3 -599.9,652.6 -70.2,76.2 -140.7,152.2 -211.5,228 -11.9,12.8 -24.2,26.5 -38.9,35.1 -11,6.5 -28.5,11.1 -39.1,6.9 -23.3,-9.2 -46.4,-21.9 -65.7,-37.7 -147.8,-121.1 -294.5,-243.3 -441.7,-365 -19.2,-15.9 -20.5,-33.6 -6.3,-53.7 47,-66.9 94,-133.9 140.9,-200.8 59.4,-84.7 118.1,-169.9 178.2,-254 51.2,-71.6 104,-142 156.2,-212.9 92.8,-126 184.2,-253 278.9,-377.6 60.5,-79.4 121.8,-158.2 183.3,-236.8 50.4,-64.4 109.1,-180 205.1,-186.7 56.5,-3.8 179.5,73.7 303.3,173 l 876.3,-1071.8 c 1.1,-1.4 2.5,-2.7 3.9,-3.8 4.5,-10.8 10.9,-22.5 18.6,-34 103.9,-155.3 149.1,-334.2 137.8,-505.8" />
    </g>
    <g
       transform="matrix(0.00272177,2.2736469e-4,2.2736469e-4,-0.00272177,3.1850337,61.604913)"
       id="g380-8-5-4-5-6-1">
      <path
         id="path382-4-3-3-0-9-7"
         style="fill:#ffffff;fill-opacity:1;fill-rule:nonzero;stroke:none"
         d="m 16283.2,13297.3 c 15.4,13.8 16.8,37.7 3,53.2 l -1019.8,1144.1 c -13.8,15.5 -37.7,16.9 -53.2,3.1 -15.4,-13.8 -16.8,-37.7 -3,-53.2 L 16230,13300.4 c 13.7,-15.5 37.7,-16.9 53.2,-3.1" />
    </g>
    <text
       xml:space="preserve"
       style="font-style:normal;font-variant:normal;font-weight:normal;font-stretch:normal;font-size:15.0126px;line-height:0px;font-family:adelia;-inkscape-font-specification:adelia;fill:#ffffff;fill-opacity:1;stroke:#ffffff;stroke-width:0;stroke-dasharray:none"
       x="41.476776"
       y="43.38625"
       id="text1-9-1-2-3-6-0-7-6-7-8-3-8-9-2-2-9-0-7-2-7"
       transform="scale(0.93383377,1.0708544)"
       inkscape:export-filename=".\text1-9-1.svg"
       inkscape:export-xdpi="96"
       inkscape:export-ydpi="96"><tspan
         sodipodi:role="line"
         id="tspan1-5-2-1-6-8-5-1-4-8-3-7-2-9-4-3-5-9-1-1-0"
         x="41.476776"
         y="43.38625"
         style="font-style:normal;font-variant:normal;font-weight:normal;font-stretch:normal;line-height:0px;font-family:Bombslide;-inkscape-font-specification:Bombslide;fill:#ffffff;fill-opacity:1;stroke:#ffffff;stroke-width:0;stroke-dasharray:none;stroke-opacity:1">Nails</tspan></text>
    <path
       id="path140-9-1-1-0-8-3-5"
       style="fill:#ff6f00;fill-opacity:1;fill-rule:nonzero;stroke:none;stroke-width:0.00186707"
       d="m 37.606955,43.225233 c 0.02619,-0.13994 -0.06032,-0.28059 -0.192193,-0.31284 l -0.703501,-0.17206 c -0.01111,-0.0354 -0.0635,-0.11213 -0.0689,-0.11726 -0.03527,-0.0336 -0.463286,-0.26059 -0.47461,-0.21471 l 0.08379,-0.33864 -0.04257,-0.0114 c -0.06186,-0.0167 -0.09911,-0.0824 -0.08303,-0.14674 0.01614,-0.0641 0.07961,-0.10313 0.140943,-0.0867 l 0.04236,0.0114 c 0.01561,-0.0632 0.03374,-0.12586 0.05276,-0.18822 l -0.04794,-0.013 c -0.06115,-0.0164 -0.09782,-0.0823 -0.08178,-0.14639 0.0164,-0.0643 0.07914,-0.10348 0.139912,-0.0872 l 0.05321,0.0143 c 0.0053,-0.023 0.01032,-0.0465 0.01455,-0.07 0.03003,-0.16476 0.04128,-0.21897 -0.1066,-0.26438 -0.191215,-0.059 -0.387562,-0.10385 -0.580523,-0.15554 h -0.0029 l -0.06493,-0.0175 h -0.0029 c -0.192987,-0.0517 -0.385472,-0.11102 -0.580549,-0.15555 -0.15076,-0.0347 -0.168143,0.018 -0.224499,0.17566 -0.0082,0.0222 -0.01535,0.0452 -0.02249,0.0678 l 0.05318,0.0143 c 0.06077,0.0164 0.09565,0.0816 0.0776,0.14544 -0.01826,0.0636 -0.08289,0.10229 -0.144013,0.0859 l -0.048,-0.013 c -0.01508,0.0634 -0.03051,0.12674 -0.04842,0.18939 l 0.04239,0.0114 c 0.0613,0.0164 0.09671,0.082 0.07871,0.14557 -0.01826,0.0637 -0.08342,0.10213 -0.145283,0.0856 l -0.04257,-0.0114 -0.09676,0.33515 c 0.01323,-0.0454 -0.471038,-0.0628 -0.518372,-0.0514 -0.0071,0.003 -0.09088,0.042 -0.118295,0.0671 l -0.695272,-0.20275 c -0.13036,-0.038 -0.275511,0.0406 -0.322871,0.17484 l -1.761384,4.95477 c -0.04792,0.13407 0.03381,0.2785 0.181636,0.32121 l 2.444089,0.70593 v 0.003 l 0.03844,0.01 0.03802,0.0111 v -0.003 l 2.469594,0.61071 c 0.149569,0.037 0.292365,-0.0473 0.317924,-0.18738 l 0.951971,-5.17162" />
    <path
       id="path142-8-2-9-8-8-3-8"
       style="fill:#ffffff;fill-opacity:1;fill-rule:nonzero;stroke:none;stroke-width:0.00186707"
       d="m 31.559189,46.569483 0.15568,-0.44463 0.310833,-0.88955 0.619098,-1.77962 0.308452,-0.89 0.07707,-0.2227 0.03834,-0.11131 0.01931,-0.0555 0.0095,-0.0278 c 0.0034,-0.01 0.0074,-0.0201 0.01191,-0.0295 0.03654,-0.0779 0.113797,-0.13401 0.192325,-0.14137 0.01931,-0.003 0.03916,0 0.05784,0.003 0.01958,0.004 0.03498,0.009 0.05231,0.014 l 0.01773,0.006 c -0.0071,-0.003 -0.01429,-0.004 -0.02064,-0.006 -0.01588,-0.003 -0.03238,-0.004 -0.04887,-0.003 -0.06641,0.006 -0.131922,0.0538 -0.162508,0.11959 -0.004,0.008 -0.0071,0.0164 -0.01032,0.0251 l -0.0098,0.0279 -0.01905,0.0557 -0.03831,0.11131 -0.07649,0.22264 -0.306678,0.89067 -0.615871,1.78049 -0.30898,0.88987 -0.154834,0.44503 -0.03868,0.11123 -0.0095,0.0274 c -0.0032,0.008 -0.0048,0.0172 -0.0061,0.0259 -0.0032,0.0175 -0.0037,0.0353 -0.0026,0.0528 0.0042,0.0346 0.01984,0.0674 0.0454,0.0902 0.0254,0.023 0.06014,0.0345 0.09633,0.0343 h 0.0053 c 0.08811,0.007 0.175022,0.0169 0.261805,0.0286 0.08665,0.0114 0.172773,0.0246 0.258657,0.0388 0.302022,0.0494 0.588619,0.13259 0.868495,0.25747 0.113956,0.0508 0.228521,0.10663 0.339566,0.16251 0.08747,0.0443 0.167111,0.1302 0.266859,0.14165 -0.193305,-0.0222 -0.36912,-0.11128 -0.560282,-0.16615 -0.341683,-0.0983 -0.690615,-0.0996 -1.031531,-0.19 -0.213042,-0.0562 -0.582692,-0.1461 -0.643599,-0.38412 -0.01879,-0.0742 0.02593,-0.15195 0.05054,-0.22246" />
    <path
       id="path144-79-6-1-7-7-9-8"
       style="fill:#ffffff;fill-opacity:1;fill-rule:nonzero;stroke:none;stroke-width:0.00186707"
       d="m 36.439322,46.936543 c -0.01879,0.11015 -0.125333,0.18058 -0.236193,0.15571 -0.643996,-0.14375 -1.285584,-0.30231 -1.923786,-0.47488 -0.63881,-0.16962 -1.27373,-0.35308 -1.903491,-0.55065 -0.108453,-0.0339 -0.165762,-0.14819 -0.127397,-0.25312 0.28358,-0.78283 0.565917,-1.56597 0.847301,-2.34919 0.03768,-0.1053 0.146579,-0.16621 0.242094,-0.13597 0.430318,0.13619 0.863468,0.26461 1.299131,0.38521 2.11e-4,0 0,-0.003 0,-0.003 0.128508,0.0361 0.257333,0.0719 0.386185,0.10673 0.128958,0.0346 0.258472,0.0677 0.387853,0.10067 -2.11e-4,0 0,0.003 0,0.003 0.437595,0.1134 0.876935,0.21876 1.317705,0.31596 0.09763,0.0214 0.161686,0.12878 0.142213,0.23895 -0.145044,0.81976 -0.289057,1.63997 -0.431985,2.46046" />
    <path
       id="path146-2-3-6-6-8-6-6"
       style="fill:#ffffff;fill-opacity:1;fill-rule:nonzero;stroke:none;stroke-width:0.00186707"
       d="m 35.994134,41.518303 -0.763031,-0.20447 c -0.03426,-0.009 -0.05416,-0.046 -0.04419,-0.0818 v 0 c 0.0095,-0.0361 0.04622,-0.0578 0.0803,-0.0486 l 0.760704,0.20381 c 0.03408,0.009 0.05453,0.0461 0.0454,0.0823 v 0 c -0.0095,0.0359 -0.04493,0.058 -0.07919,0.0488" />
    <path
       id="path148-7-0-6-0-5-4-8"
       style="fill:#ffffff;fill-opacity:1;fill-rule:nonzero;stroke:none;stroke-width:0.00186707"
       d="m 35.809032,41.888903 -0.546285,-0.14637 c -0.05014,-0.0135 -0.08139,-0.0591 -0.06956,-0.10176 v 0 c 0.01138,-0.0427 0.06228,-0.0666 0.112077,-0.0533 l 0.543745,0.14568 c 0.04995,0.0135 0.0817,0.0594 0.07078,0.10229 v 0 c -0.01058,0.0429 -0.0608,0.0668 -0.110754,0.0534" />
    <g
       id="g4"
       transform="translate(10.270794,11.622215)"
       inkscape:export-filename="assets\logo\logo_bia_claro.svg"
       inkscape:export-xdpi="96"
       inkscape:export-ydpi="96">
      <text
         xml:space="preserve"
         style="font-style:normal;font-variant:normal;font-weight:normal;font-stretch:normal;font-size:3.46244px;line-height:0px;font-family:adelia;-inkscape-font-specification:adelia;fill:#ffffff;fill-opacity:1;stroke:#ffffff;stroke-width:0;stroke-dasharray:none"
         x="41.180031"
         y="175.37798"
         id="text1-9-1-2-3-5-1-7-6-6-0-9-7-0-1-7-7-0-5-5-5-5-0"
         transform="scale(0.93383377,1.0708544)"
         inkscape:export-filename=".\text1-9-8.svg"
         inkscape:export-xdpi="96"
         inkscape:export-ydpi="96"><tspan
           sodipodi:role="line"
           id="tspan1-5-2-1-6-4-7-0-3-6-0-8-4-2-9-8-9-0-7-7-8-1-5"
           x="41.180031"
           y="175.37798"
           style="font-style:normal;font-variant:normal;font-weight:normal;font-stretch:normal;line-height:0px;font-family:Garet;-inkscape-font-specification:Garet;fill:#ffffff;fill-opacity:1;stroke:#ffffff;stroke-width:0;stroke-dasharray:none;stroke-opacity:1">Mãos e Pés</tspan></text>
      <text
         xml:space="preserve"
         style="font-style:normal;font-variant:normal;font-weight:normal;font-stretch:normal;font-size:15.4686px;line-height:0px;font-family:adelia;-inkscape-font-specification:adelia;fill:#ffffff;fill-opacity:1;stroke:#ffffff;stroke-width:0;stroke-dasharray:none"
         x="34.971298"
         y="161.09233"
         id="text1-9-1-2-3-0-2-7-5-7-2-4-7-5-74-9-0-8-6-3-4-8-2"
         transform="scale(0.93383377,1.0708544)"
         inkscape:export-filename=".\text1-9-1.svg"
         inkscape:export-xdpi="96"
         inkscape:export-ydpi="96"><tspan
           sodipodi:role="line"
           id="tspan1-5-2-1-6-6-4-0-0-0-2-4-5-9-9-4-8-3-9-1-9-0-9"
           x="34.971298"
           y="161.09233"
           style="font-style:normal;font-variant:normal;font-weight:normal;font-stretch:normal;line-height:0px;font-family:Bombslide;-inkscape-font-specification:Bombslide;fill:#ffffff;fill-opacity:1;stroke:#ffffff;stroke-width:0;stroke-dasharray:none;stroke-opacity:1">Bia</tspan></text>
      <g
         transform="matrix(0.00292326,2.4419639e-4,2.4419639e-4,-0.00292326,3.1850337,198.06437)"
         id="g376-3-4-8-0-3-0-8"
         style="fill:#ff6f00;fill-opacity:1">
        <path
           id="path378-5-7-0-1-8-3-5"
           style="fill:#ff6f00;fill-opacity:1;fill-rule:nonzero;stroke:none"
           d="m 14161.8,13448.9 c -12.9,14.4 -11.5,36.7 2.8,49.5 14.5,12.8 36.7,11.6 49.5,-2.8 l 949.5,-1065.3 c 12.9,-14.4 11.6,-36.7 -2.8,-49.5 -14.4,-12.9 -36.7,-11.6 -49.5,2.8 z m 1875.3,-3061.5 c -2.7,-41.7 26.9,-87.4 29.9,-131 3.4,-51.7 -5,-104.3 -25,-152.2 -9.7,-23.3 -22.1,-45.5 -31,-69.1 -24.5,-65.16 -49.9,-251.57 51.2,-272.37 80.5,-16.59 129.7,87.88 120.3,152.38 -12.5,85.99 -32.8,170.79 -60.4,253.19 -9.1,27.3 -47.1,115.6 -22,142 22,23 107.7,2.8 139.1,0.7 34.3,-2.9 60.8,34.6 54.4,82.2 -30.6,227 -134.6,431.1 -288.3,583.9 -15.9,15.8 -33.1,27.4 -47.7,33.9 l -870.5,1064.7 c 126.1,111.1 236,230.5 254.2,289.8 8.1,26.1 -20.6,46.8 -35.7,64.3 -115.7,134.5 -229,271.1 -347.9,402.6 -198.1,219.3 -399.6,435.3 -599.9,652.6 -70.2,76.2 -140.7,152.2 -211.5,228 -11.9,12.8 -24.2,26.5 -38.9,35.1 -11,6.5 -28.5,11.1 -39.1,6.9 -23.3,-9.2 -46.4,-21.9 -65.7,-37.7 -147.8,-121.1 -294.5,-243.3 -441.7,-365 -19.2,-15.9 -20.5,-33.6 -6.3,-53.7 47,-66.9 94,-133.9 140.9,-200.8 59.4,-84.7 118.1,-169.9 178.2,-254 51.2,-71.6 104,-142 156.2,-212.9 92.8,-126 184.2,-253 278.9,-377.6 60.5,-79.4 121.8,-158.2 183.3,-236.8 50.4,-64.4 109.1,-180 205.1,-186.7 56.5,-3.8 179.5,73.7 303.3,173 l 876.3,-1071.8 c 1.1,-1.4 2.5,-2.7 3.9,-3.8 4.5,-10.8 10.9,-22.5 18.6,-34 103.9,-155.3 149.1,-334.2 137.8,-505.8" />
      </g>
      <g
         transform="matrix(0.00272177,2.2736469e-4,2.2736469e-4,-0.00272177,3.1850337,198.06437)"
         id="g380-8-5-4-5-6-1-8">
        <path
           id="path382-4-3-3-0-9-7-9"
           style="fill:#ffffff;fill-opacity:1;fill-rule:nonzero;stroke:none"
           d="m 16283.2,13297.3 c 15.4,13.8 16.8,37.7 3,53.2 l -1019.8,1144.1 c -13.8,15.5 -37.7,16.9 -53.2,3.1 -15.4,-13.8 -16.8,-37.7 -3,-53.2 L 16230,13300.4 c 13.7,-15.5 37.7,-16.9 53.2,-3.1" />
      </g>
      <text
         xml:space="preserve"
         style="font-style:normal;font-variant:normal;font-weight:normal;font-stretch:normal;font-size:15.0126px;line-height:0px;font-family:adelia;-inkscape-font-specification:adelia;fill:#ffffff;fill-opacity:1;stroke:#ffffff;stroke-width:0;stroke-dasharray:none"
         x="41.476776"
         y="170.8167"
         id="text1-9-1-2-3-6-0-7-6-7-8-3-8-9-2-2-9-0-7-2-7-9"
         transform="scale(0.93383377,1.0708544)"
         inkscape:export-filename=".\text1-9-1.svg"
         inkscape:export-xdpi="96"
         inkscape:export-ydpi="96"><tspan
           sodipodi:role="line"
           id="tspan1-5-2-1-6-8-5-1-4-8-3-7-2-9-4-3-5-9-1-1-0-7"
           x="41.476776"
           y="170.8167"
           style="font-style:normal;font-variant:normal;font-weight:normal;font-stretch:normal;line-height:0px;font-family:Bombslide;-inkscape-font-specification:Bombslide;fill:#ffffff;fill-opacity:1;stroke:#ffffff;stroke-width:0;stroke-dasharray:none;stroke-opacity:1">Nails</tspan></text>
      <path
         id="path140-9-1-1-0-8-3-5-8"
         style="fill:#ff6f00;fill-opacity:1;fill-rule:nonzero;stroke:none;stroke-width:0.00186707"
         d="m 37.606955,179.68469 c 0.02619,-0.13994 -0.06032,-0.28059 -0.192193,-0.31284 l -0.703501,-0.17206 c -0.01111,-0.0354 -0.0635,-0.11213 -0.0689,-0.11726 -0.03527,-0.0336 -0.463286,-0.26059 -0.47461,-0.21471 l 0.08379,-0.33864 -0.04257,-0.0114 c -0.06186,-0.0167 -0.09911,-0.0824 -0.08303,-0.14674 0.01614,-0.0641 0.07961,-0.10313 0.140943,-0.0867 l 0.04236,0.0114 c 0.01561,-0.0632 0.03374,-0.12586 0.05276,-0.18822 l -0.04794,-0.013 c -0.06115,-0.0164 -0.09782,-0.0823 -0.08178,-0.14639 0.0164,-0.0643 0.07914,-0.10348 0.139912,-0.0872 l 0.05321,0.0143 c 0.0053,-0.023 0.01032,-0.0465 0.01455,-0.07 0.03003,-0.16476 0.04128,-0.21897 -0.1066,-0.26438 -0.191215,-0.059 -0.387562,-0.10385 -0.580523,-0.15554 h -0.0029 l -0.06493,-0.0175 h -0.0029 c -0.192987,-0.0517 -0.385472,-0.11102 -0.580549,-0.15555 -0.15076,-0.0347 -0.168143,0.018 -0.224499,0.17566 -0.0082,0.0222 -0.01535,0.0452 -0.02249,0.0678 l 0.05318,0.0143 c 0.06077,0.0164 0.09565,0.0816 0.0776,0.14544 -0.01826,0.0636 -0.08289,0.10229 -0.144013,0.0859 l -0.048,-0.013 c -0.01508,0.0634 -0.03051,0.12674 -0.04842,0.18939 l 0.04239,0.0114 c 0.0613,0.0164 0.09671,0.082 0.07871,0.14557 -0.01826,0.0637 -0.08342,0.10213 -0.145283,0.0856 l -0.04257,-0.0114 -0.09676,0.33515 c 0.01323,-0.0454 -0.471038,-0.0628 -0.518372,-0.0514 -0.0071,0.003 -0.09088,0.042 -0.118295,0.0671 l -0.695272,-0.20275 c -0.13036,-0.038 -0.275511,0.0406 -0.322871,0.17484 l -1.761384,4.95477 c -0.04792,0.13407 0.03381,0.2785 0.181636,0.32121 l 2.444089,0.70593 v 0.003 l 0.03844,0.01 0.03802,0.0111 v -0.003 l 2.469594,0.61071 c 0.149569,0.037 0.292365,-0.0473 0.317924,-0.18738 l 0.951971,-5.17162" />
      <path
         id="path142-8-2-9-8-8-3-8-5"
         style="fill:#ffffff;fill-opacity:1;fill-rule:nonzero;stroke:none;stroke-width:0.00186707"
         d="m 31.559189,183.02894 0.15568,-0.44463 0.310833,-0.88955 0.619098,-1.77962 0.308452,-0.89 0.07707,-0.2227 0.03834,-0.11131 0.01931,-0.0555 0.0095,-0.0278 c 0.0034,-0.01 0.0074,-0.0201 0.01191,-0.0295 0.03654,-0.0779 0.113797,-0.13401 0.192325,-0.14137 0.01931,-0.003 0.03916,0 0.05784,0.003 0.01958,0.004 0.03498,0.009 0.05231,0.014 l 0.01773,0.006 c -0.0071,-0.003 -0.01429,-0.004 -0.02064,-0.006 -0.01588,-0.003 -0.03238,-0.004 -0.04887,-0.003 -0.06641,0.006 -0.131922,0.0538 -0.162508,0.11959 -0.004,0.008 -0.0071,0.0164 -0.01032,0.0251 l -0.0098,0.0279 -0.01905,0.0557 -0.03831,0.11131 -0.07649,0.22264 -0.306678,0.89067 -0.615871,1.78049 -0.30898,0.88987 -0.154834,0.44503 -0.03868,0.11123 -0.0095,0.0274 c -0.0032,0.008 -0.0048,0.0172 -0.0061,0.0259 -0.0032,0.0175 -0.0037,0.0353 -0.0026,0.0528 0.0042,0.0346 0.01984,0.0674 0.0454,0.0902 0.0254,0.023 0.06014,0.0345 0.09633,0.0343 h 0.0053 c 0.08811,0.007 0.175022,0.0169 0.261805,0.0286 0.08665,0.0114 0.172773,0.0246 0.258657,0.0388 0.302022,0.0494 0.588619,0.13259 0.868495,0.25747 0.113956,0.0508 0.228521,0.10663 0.339566,0.16251 0.08747,0.0443 0.167111,0.1302 0.266859,0.14165 -0.193305,-0.0222 -0.36912,-0.11128 -0.560282,-0.16615 -0.341683,-0.0983 -0.690615,-0.0996 -1.031531,-0.19 -0.213042,-0.0562 -0.582692,-0.1461 -0.643599,-0.38412 -0.01879,-0.0742 0.02593,-0.15195 0.05054,-0.22246" />
      <path
         id="path144-79-6-1-7-7-9-8-0"
         style="fill:#ffffff;fill-opacity:1;fill-rule:nonzero;stroke:none;stroke-width:0.00186707"
         d="m 36.439322,183.396 c -0.01879,0.11015 -0.125333,0.18058 -0.236193,0.15571 -0.643996,-0.14375 -1.285584,-0.30231 -1.923786,-0.47488 -0.63881,-0.16962 -1.27373,-0.35308 -1.903491,-0.55065 -0.108453,-0.0339 -0.165762,-0.14819 -0.127397,-0.25312 0.28358,-0.78283 0.565917,-1.56597 0.847301,-2.34919 0.03768,-0.1053 0.146579,-0.16621 0.242094,-0.13597 0.430318,0.13619 0.863468,0.26461 1.299131,0.38521 2.11e-4,0 0,-0.003 0,-0.003 0.128508,0.0361 0.257333,0.0719 0.386185,0.10673 0.128958,0.0346 0.258472,0.0677 0.387853,0.10067 -2.11e-4,0 0,0.003 0,0.003 0.437595,0.1134 0.876935,0.21876 1.317705,0.31596 0.09763,0.0214 0.161686,0.12878 0.142213,0.23895 -0.145044,0.81976 -0.289057,1.63997 -0.431985,2.46046" />
      <path
         id="path146-2-3-6-6-8-6-6-8"
         style="fill:#ffffff;fill-opacity:1;fill-rule:nonzero;stroke:none;stroke-width:0.00186707"
         d="m 35.994134,177.97776 -0.763031,-0.20447 c -0.03426,-0.009 -0.05416,-0.046 -0.04419,-0.0818 v 0 c 0.0095,-0.0361 0.04622,-0.0578 0.0803,-0.0486 l 0.760704,0.20381 c 0.03408,0.009 0.05453,0.0461 0.0454,0.0823 v 0 c -0.0095,0.0359 -0.04493,0.058 -0.07919,0.0488" />
      <path
         id="path148-7-0-6-0-5-4-8-1"
         style="fill:#ffffff;fill-opacity:1;fill-rule:nonzero;stroke:none;stroke-width:0.00186707"
         d="m 35.809032,178.34836 -0.546285,-0.14637 c -0.05014,-0.0135 -0.08139,-0.0591 -0.06956,-0.10176 v 0 c 0.01138,-0.0427 0.06228,-0.0666 0.112077,-0.0533 l 0.543745,0.14568 c 0.04995,0.0135 0.0817,0.0594 0.07078,0.10229 v 0 c -0.01058,0.0429 -0.0608,0.0668 -0.110754,0.0534" />
    </g>
    <rect
       style="fill:#ff6f00;stroke:#ffffff;stroke-width:0;fill-opacity:1"
       id="rect1"
       width="11.658301"
       height="11.658301"
       x="25.03668"
       y="84.283783" />
    <rect
       style="fill:#000000;stroke:#ffffff;stroke-width:0"
       id="rect1-5"
       width="11.658301"
       height="11.658301"
       x="25.03668"
       y="96.706566" />
    <rect
       style="fill:#803300;stroke:#ffffff;stroke-width:0;fill-opacity:1"
       id="rect1-5-4"
       width="11.658301"
       height="11.658301"
       x="25.03668"
       y="96.706566" />
    <rect
       style="fill:#000000;stroke:#ffffff;stroke-width:0;fill-opacity:1"
       id="rect1-5-4-0"
       width="11.658301"
       height="11.658301"
       x="25.03668"
       y="109.22491" />
    <rect
       style="fill:#ffffff;stroke:#ffffff;stroke-width:0;fill-opacity:1"
       id="rect1-5-4-0-8"
       width="11.658301"
       height="11.658301"
       x="25.03668"
       y="122.02992" />
    <text
       xml:space="preserve"
       style="font-style:normal;font-variant:normal;font-weight:normal;font-stretch:normal;font-size:2.3636px;line-height:0px;font-family:Arial;-inkscape-font-specification:Arial;fill:#000000;fill-opacity:1;stroke:#000000;stroke-width:0"
       x="39.797398"
       y="93.796112"
       id="text1"><tspan
         sodipodi:role="line"
         id="tspan1"
         style="font-style:normal;font-variant:normal;font-weight:normal;font-stretch:normal;font-family:Arial;-inkscape-font-specification:Arial;stroke-width:0;stroke:#000000;fill:#000000"
         x="39.797398"
         y="93.796112" /><tspan
         sodipodi:role="line"
         style="font-style:normal;font-variant:normal;font-weight:normal;font-stretch:normal;font-family:Arial;-inkscape-font-specification:Arial;stroke-width:0;stroke:#000000;fill:#000000"
         x="39.797398"
         y="93.796112"
         id="tspan2" /><tspan
         sodipodi:role="line"
         style="font-style:normal;font-variant:normal;font-weight:normal;font-stretch:normal;font-family:Arial;-inkscape-font-specification:Arial;stroke-width:0;stroke:#000000;fill:#000000"
         x="39.797398"
         y="93.796112"
         id="tspan3">RGBA : ff6f00ff</tspan></text>
    <text
       xml:space="preserve"
       style="font-style:normal;font-variant:normal;font-weight:normal;font-stretch:normal;font-size:2.3636px;line-height:0px;font-family:Arial;-inkscape-font-specification:Arial;fill:#000000;fill-opacity:1;stroke:#000000;stroke-width:0"
       x="39.797398"
       y="90.879425"
       id="text1-8"><tspan
         sodipodi:role="line"
         id="tspan1-4"
         style="font-style:normal;font-variant:normal;font-weight:normal;font-stretch:normal;font-family:Arial;-inkscape-font-specification:Arial;stroke-width:0;stroke:#000000;fill:#000000"
         x="39.797398"
         y="90.879425" /><tspan
         sodipodi:role="line"
         style="font-style:normal;font-variant:normal;font-weight:normal;font-stretch:normal;font-family:Arial;-inkscape-font-specification:Arial;stroke-width:0;stroke:#000000;fill:#000000"
         x="39.797398"
         y="90.879425"
         id="tspan2-4" /><tspan
         sodipodi:role="line"
         style="font-style:normal;font-variant:normal;font-weight:normal;font-stretch:normal;font-family:Arial;-inkscape-font-specification:Arial;stroke-width:0;stroke:#000000;fill:#000000"
         x="39.797398"
         y="90.879425"
         id="tspan3-5">Laranja</tspan></text>
    <text
       xml:space="preserve"
       style="font-style:normal;font-variant:normal;font-weight:normal;font-stretch:normal;font-size:2.3636px;line-height:0px;font-family:Arial;-inkscape-font-specification:Arial;fill:#000000;fill-opacity:1;stroke:#000000;stroke-width:0"
       x="39.797398"
       y="88.176155"
       id="text1-8-6"><tspan
         sodipodi:role="line"
         id="tspan1-4-0"
         style="font-style:normal;font-variant:normal;font-weight:normal;font-stretch:normal;font-family:Arial;-inkscape-font-specification:Arial;stroke-width:0;stroke:#000000;fill:#000000"
         x="39.797398"
         y="88.176155" /><tspan
         sodipodi:role="line"
         style="font-style:normal;font-variant:normal;font-weight:normal;font-stretch:normal;font-family:Arial;-inkscape-font-specification:Arial;stroke-width:0;stroke:#000000;fill:#000000"
         x="39.797398"
         y="88.176155"
         id="tspan2-4-4" /><tspan
         sodipodi:role="line"
         style="font-style:normal;font-variant:normal;font-weight:normal;font-stretch:normal;font-family:Arial;-inkscape-font-specification:Arial;stroke-width:0;stroke:#000000;fill:#000000"
         x="39.797398"
         y="88.176155"
         id="tspan3-5-6">Primary Color</tspan></text>
    <text
       xml:space="preserve"
       style="font-style:normal;font-variant:normal;font-weight:normal;font-stretch:normal;font-size:2.3636px;line-height:0px;font-family:Arial;-inkscape-font-specification:Arial;fill:#000000;fill-opacity:1;stroke:#000000;stroke-width:0"
       x="39.797398"
       y="105.41832"
       id="text1-9"><tspan
         sodipodi:role="line"
         id="tspan1-43"
         style="font-style:normal;font-variant:normal;font-weight:normal;font-stretch:normal;font-family:Arial;-inkscape-font-specification:Arial;stroke-width:0;stroke:#000000;fill:#000000"
         x="39.797398"
         y="105.41832" /><tspan
         sodipodi:role="line"
         style="font-style:normal;font-variant:normal;font-weight:normal;font-stretch:normal;font-family:Arial;-inkscape-font-specification:Arial;stroke-width:0;stroke:#000000;fill:#000000"
         x="39.797398"
         y="105.41832"
         id="tspan2-8" /><tspan
         sodipodi:role="line"
         style="font-style:normal;font-variant:normal;font-weight:normal;font-stretch:normal;font-family:Arial;-inkscape-font-specification:Arial;stroke-width:0;stroke:#000000;fill:#000000"
         x="39.797398"
         y="105.41832"
         id="tspan3-8">RGBA : 803300ff</tspan></text>
    <text
       xml:space="preserve"
       style="font-style:normal;font-variant:normal;font-weight:normal;font-stretch:normal;font-size:2.3636px;line-height:0px;font-family:Arial;-inkscape-font-specification:Arial;fill:#000000;fill-opacity:1;stroke:#000000;stroke-width:0"
       x="39.797398"
       y="102.50164"
       id="text1-8-5"><tspan
         sodipodi:role="line"
         id="tspan1-4-9"
         style="font-style:normal;font-variant:normal;font-weight:normal;font-stretch:normal;font-family:Arial;-inkscape-font-specification:Arial;stroke-width:0;stroke:#000000;fill:#000000"
         x="39.797398"
         y="102.50164" /><tspan
         sodipodi:role="line"
         style="font-style:normal;font-variant:normal;font-weight:normal;font-stretch:normal;font-family:Arial;-inkscape-font-specification:Arial;stroke-width:0;stroke:#000000;fill:#000000"
         x="39.797398"
         y="102.50164"
         id="tspan2-4-6" /><tspan
         sodipodi:role="line"
         style="font-style:normal;font-variant:normal;font-weight:normal;font-stretch:normal;font-family:Arial;-inkscape-font-specification:Arial;stroke-width:0;stroke:#000000;fill:#000000"
         x="39.797398"
         y="102.50164"
         id="tspan3-5-1">Marrom</tspan></text>
    <text
       xml:space="preserve"
       style="font-style:normal;font-variant:normal;font-weight:normal;font-stretch:normal;font-size:2.3636px;line-height:0px;font-family:Arial;-inkscape-font-specification:Arial;fill:#000000;fill-opacity:1;stroke:#000000;stroke-width:0"
       x="39.797398"
       y="99.79837"
       id="text1-8-6-4"><tspan
         sodipodi:role="line"
         id="tspan1-4-0-9"
         style="font-style:normal;font-variant:normal;font-weight:normal;font-stretch:normal;font-family:Arial;-inkscape-font-specification:Arial;stroke-width:0;stroke:#000000;fill:#000000"
         x="39.797398"
         y="99.79837" /><tspan
         sodipodi:role="line"
         style="font-style:normal;font-variant:normal;font-weight:normal;font-stretch:normal;font-family:Arial;-inkscape-font-specification:Arial;stroke-width:0;stroke:#000000;fill:#000000"
         x="39.797398"
         y="99.79837"
         id="tspan2-4-4-0" /><tspan
         sodipodi:role="line"
         style="font-style:normal;font-variant:normal;font-weight:normal;font-stretch:normal;font-family:Arial;-inkscape-font-specification:Arial;stroke-width:0;stroke:#000000;fill:#000000"
         x="39.797398"
         y="99.79837"
         id="tspan3-5-6-3">Secondary Color</tspan></text>
    <text
       xml:space="preserve"
       style="font-style:normal;font-variant:normal;font-weight:normal;font-stretch:normal;font-size:2.3636px;line-height:0px;font-family:Arial;-inkscape-font-specification:Arial;fill:#000000;fill-opacity:1;stroke:#000000;stroke-width:0"
       x="39.797398"
       y="118.32439"
       id="text1-9-4"><tspan
         sodipodi:role="line"
         id="tspan1-43-1"
         style="font-style:normal;font-variant:normal;font-weight:normal;font-stretch:normal;font-family:Arial;-inkscape-font-specification:Arial;stroke-width:0;stroke:#000000;fill:#000000"
         x="39.797398"
         y="118.32439" /><tspan
         sodipodi:role="line"
         style="font-style:normal;font-variant:normal;font-weight:normal;font-stretch:normal;font-family:Arial;-inkscape-font-specification:Arial;stroke-width:0;stroke:#000000;fill:#000000"
         x="39.797398"
         y="118.32439"
         id="tspan2-8-3" /><tspan
         sodipodi:role="line"
         style="font-style:normal;font-variant:normal;font-weight:normal;font-stretch:normal;font-family:Arial;-inkscape-font-specification:Arial;stroke-width:0;stroke:#000000;fill:#000000"
         x="39.797398"
         y="118.32439"
         id="tspan3-8-9">RGBA : 000000ff</tspan></text>
    <text
       xml:space="preserve"
       style="font-style:normal;font-variant:normal;font-weight:normal;font-stretch:normal;font-size:2.3636px;line-height:0px;font-family:Arial;-inkscape-font-specification:Arial;fill:#000000;fill-opacity:1;stroke:#000000;stroke-width:0"
       x="39.797398"
       y="115.40771"
       id="text1-8-5-3"><tspan
         sodipodi:role="line"
         id="tspan1-4-9-6"
         style="font-style:normal;font-variant:normal;font-weight:normal;font-stretch:normal;font-family:Arial;-inkscape-font-specification:Arial;stroke-width:0;stroke:#000000;fill:#000000"
         x="39.797398"
         y="115.40771" /><tspan
         sodipodi:role="line"
         style="font-style:normal;font-variant:normal;font-weight:normal;font-stretch:normal;font-family:Arial;-inkscape-font-specification:Arial;stroke-width:0;stroke:#000000;fill:#000000"
         x="39.797398"
         y="115.40771"
         id="tspan2-4-6-1" /><tspan
         sodipodi:role="line"
         style="font-style:normal;font-variant:normal;font-weight:normal;font-stretch:normal;font-family:Arial;-inkscape-font-specification:Arial;stroke-width:0;stroke:#000000;fill:#000000"
         x="39.797398"
         y="115.40771"
         id="tspan3-5-1-3">Preto</tspan></text>
    <text
       xml:space="preserve"
       style="font-style:normal;font-variant:normal;font-weight:normal;font-stretch:normal;font-size:2.3636px;line-height:0px;font-family:Arial;-inkscape-font-specification:Arial;fill:#000000;fill-opacity:1;stroke:#000000;stroke-width:0"
       x="39.797398"
       y="112.70444"
       id="text1-8-6-4-7"><tspan
         sodipodi:role="line"
         id="tspan1-4-0-9-6"
         style="font-style:normal;font-variant:normal;font-weight:normal;font-stretch:normal;font-family:Arial;-inkscape-font-specification:Arial;stroke-width:0;stroke:#000000;fill:#000000"
         x="39.797398"
         y="112.70444" /><tspan
         sodipodi:role="line"
         style="font-style:normal;font-variant:normal;font-weight:normal;font-stretch:normal;font-family:Arial;-inkscape-font-specification:Arial;stroke-width:0;stroke:#000000;fill:#000000"
         x="39.797398"
         y="112.70444"
         id="tspan2-4-4-0-6" /><tspan
         sodipodi:role="line"
         style="font-style:normal;font-variant:normal;font-weight:normal;font-stretch:normal;font-family:Arial;-inkscape-font-specification:Arial;stroke-width:0;stroke:#000000;fill:#000000"
         x="39.797398"
         y="112.70444"
         id="tspan3-5-6-3-9">Neutral Color</tspan></text>
    <text
       xml:space="preserve"
       style="font-style:normal;font-variant:normal;font-weight:normal;font-stretch:normal;font-size:2.3636px;line-height:0px;font-family:Arial;-inkscape-font-specification:Arial;fill:#000000;fill-opacity:1;stroke:#000000;stroke-width:0;stroke-opacity:1"
       x="39.797398"
       y="130.68988"
       id="text1-9-4-3"><tspan
         sodipodi:role="line"
         id="tspan1-43-1-8"
         style="font-style:normal;font-variant:normal;font-weight:normal;font-stretch:normal;font-family:Arial;-inkscape-font-specification:Arial;stroke-width:0;stroke:#000000;stroke-opacity:1;fill:#000000"
         x="39.797398"
         y="130.68988" /><tspan
         sodipodi:role="line"
         style="font-style:normal;font-variant:normal;font-weight:normal;font-stretch:normal;font-family:Arial;-inkscape-font-specification:Arial;stroke-width:0;stroke:#000000;stroke-opacity:1;fill:#000000"
         x="39.797398"
         y="130.68988"
         id="tspan2-8-3-0" /><tspan
         sodipodi:role="line"
         style="font-style:normal;font-variant:normal;font-weight:normal;font-stretch:normal;font-family:Arial;-inkscape-font-specification:Arial;stroke-width:0;stroke:#000000;stroke-opacity:1;fill:#000000"
         x="39.797398"
         y="130.68988"
         id="tspan3-8-9-4">RGBA : ffffffff</tspan></text>
    <text
       xml:space="preserve"
       style="font-style:normal;font-variant:normal;font-weight:normal;font-stretch:normal;font-size:2.3636px;line-height:0px;font-family:Arial;-inkscape-font-specification:Arial;fill:#000000;fill-opacity:1;stroke:#000000;stroke-width:0;stroke-opacity:1"
       x="39.797398"
       y="127.7732"
       id="text1-8-5-3-1"><tspan
         sodipodi:role="line"
         id="tspan1-4-9-6-9"
         style="font-style:normal;font-variant:normal;font-weight:normal;font-stretch:normal;font-family:Arial;-inkscape-font-specification:Arial;stroke-width:0;stroke:#000000;stroke-opacity:1;fill:#000000"
         x="39.797398"
         y="127.7732" /><tspan
         sodipodi:role="line"
         style="font-style:normal;font-variant:normal;font-weight:normal;font-stretch:normal;font-family:Arial;-inkscape-font-specification:Arial;stroke-width:0;stroke:#000000;stroke-opacity:1;fill:#000000"
         x="39.797398"
         y="127.7732"
         id="tspan2-4-6-1-6" /><tspan
         sodipodi:role="line"
         style="font-style:normal;font-variant:normal;font-weight:normal;font-stretch:normal;font-family:Arial;-inkscape-font-specification:Arial;stroke-width:0;stroke:#000000;stroke-opacity:1;fill:#000000"
         x="39.797398"
         y="127.7732"
         id="tspan3-5-1-3-6">Branco</tspan></text>
    <text
       xml:space="preserve"
       style="font-style:normal;font-variant:normal;font-weight:normal;font-stretch:normal;font-size:2.3636px;line-height:0px;font-family:Arial;-inkscape-font-specification:Arial;fill:#000000;fill-opacity:1;stroke:#000000;stroke-width:0;stroke-opacity:1"
       x="39.797398"
       y="125.06993"
       id="text1-8-6-4-7-6"><tspan
         sodipodi:role="line"
         id="tspan1-4-0-9-6-9"
         style="font-style:normal;font-variant:normal;font-weight:normal;font-stretch:normal;font-family:Arial;-inkscape-font-specification:Arial;stroke-width:0;stroke:#000000;stroke-opacity:1;fill:#000000"
         x="39.797398"
         y="125.06993" /><tspan
         sodipodi:role="line"
         style="font-style:normal;font-variant:normal;font-weight:normal;font-stretch:normal;font-family:Arial;-inkscape-font-specification:Arial;stroke-width:0;stroke:#000000;stroke-opacity:1;fill:#000000"
         x="39.797398"
         y="125.06993"
         id="tspan2-4-4-0-6-5" /><tspan
         sodipodi:role="line"
         style="font-style:normal;font-variant:normal;font-weight:normal;font-stretch:normal;font-family:Arial;-inkscape-font-specification:Arial;stroke-width:0;stroke:#000000;stroke-opacity:1;fill:#000000"
         x="39.797398"
         y="125.06993"
         id="tspan3-5-6-3-9-9">Neutral Color</tspan></text>
    <text
       xml:space="preserve"
       style="font-style:normal;font-variant:normal;font-weight:normal;font-stretch:normal;font-size:3.175px;line-height:0px;font-family:Arial;-inkscape-font-specification:Arial;fill:#000000;fill-opacity:1;stroke:#000000;stroke-width:0"
       x="48.78627"
       y="160.27844"
       id="text5"><tspan
         sodipodi:role="line"
         id="tspan5"
         style="stroke-width:0;stroke:#000000;fill:#000000"
         x="48.78627"
         y="160.27844">Logo Claro</tspan></text>
    <text
       xml:space="preserve"
       style="font-style:normal;font-variant:normal;font-weight:normal;font-stretch:normal;font-size:3.175px;line-height:0px;font-family:Arial;-inkscape-font-specification:Arial;fill:#000000;fill-opacity:1;stroke:#000000;stroke-width:0"
       x="133.1149"
       y="160.27844"
       id="text5-2"><tspan
         sodipodi:role="line"
         id="tspan5-2"
         style="stroke-width:0;stroke:#000000;fill:#000000"
         x="133.1149"
         y="160.27844">Logo Escuro</tspan></text>
  </g>
</svg>
